<?xml version="1.0" encoding="UTF-8"?>
<!DOCTYPE svg PUBLIC "-//W3C//DTD SVG 1.1//EN" "http://www.w3.org/Graphics/SVG/1.1/DTD/svg11.dtd">
<!-- Creator: CorelDRAW X8 -->
<svg xmlns="http://www.w3.org/2000/svg" xml:space="preserve" width="0.999992in" height="0.999992in" version="1.1" style="shape-rendering:geometricPrecision; text-rendering:geometricPrecision; image-rendering:optimizeQuality; fill-rule:evenodd; clip-rule:evenodd"
viewBox="0 0 1000 1000"
 xmlns:xlink="http://www.w3.org/1999/xlink">
 <defs>
  <style type="text/css">
   <![CDATA[
    .str0 {stroke:#EBEBE7;stroke-width:19.9961}
    .fil0 {fill:#EBEBE7}
   ]]>
  </style>
 </defs>
 <g id="Layer_x0020_1">
  <metadata id="CorelCorpID_0Corel-Layer"/>
  <path class="fil0 str0" d="M905 482l-384 -193 -1 0c-6,-3 -12,-4 -19,-5 -8,0 -16,2 -23,6l-386 193c-3,1 -6,3 -8,5 -11,9 -17,22 -17,35l0 0 0 189 408 -239c8,-5 17,-8 27,-7 9,0 18,3 25,8l406 238 0 -188 0 -1 0 0c0,-10 -3,-19 -9,-27 -5,-7 -12,-12 -19,-14z"/>
 </g>
</svg>
