<?xml version="1.0" encoding="UTF-8"?>
<!DOCTYPE svg PUBLIC "-//W3C//DTD SVG 1.1//EN" "http://www.w3.org/Graphics/SVG/1.1/DTD/svg11.dtd">
<!-- Creator: CorelDRAW X8 -->
<svg xmlns="http://www.w3.org/2000/svg" xml:space="preserve" width="0.999992in" height="0.999992in" version="1.1" style="shape-rendering:geometricPrecision; text-rendering:geometricPrecision; image-rendering:optimizeQuality; fill-rule:evenodd; clip-rule:evenodd"
viewBox="0 0 1000 1000"
 xmlns:xlink="http://www.w3.org/1999/xlink">
 <defs>
  <style type="text/css">
   <![CDATA[
    .str0 {stroke:#EBEBE7;stroke-width:19.9961}
    .fil0 {fill:none}
   ]]>
  </style>
 </defs>
 <g id="Layer_x0020_1">
  <metadata id="CorelCorpID_0Corel-Layer"/>
  <path class="fil0 str0" d="M263 285l474 0c37,0 67,30 67,67l0 296 0 0 0 1 0 0 0 0c0,36 -30,66 -67,66l-474 0c-37,0 -67,-30 -67,-67l0 -296c0,-37 30,-67 67,-67z"/>
  <path class="fil0 str0" d="M746 286c32,4 58,32 58,66l0 296 0 0 0 1 0 0 0 0c0,36 -30,66 -67,66l0 0 0 -342 -237 168 -237 -169 0 192 0 151 0 0c-37,0 -67,-30 -67,-67l0 -296c0,-35 26,-63 60,-67l245 174 245 -173 0 0z"/>
 </g>
</svg>
