<?xml version="1.0" encoding="UTF-8"?>
<!DOCTYPE svg PUBLIC "-//W3C//DTD SVG 1.1//EN" "http://www.w3.org/Graphics/SVG/1.1/DTD/svg11.dtd">
<!-- Creator: CorelDRAW X8 -->
<svg xmlns="http://www.w3.org/2000/svg" xml:space="preserve" width="0.999992in" height="0.999992in" version="1.1" style="shape-rendering:geometricPrecision; text-rendering:geometricPrecision; image-rendering:optimizeQuality; fill-rule:evenodd; clip-rule:evenodd"
viewBox="0 0 1000 1000"
 xmlns:xlink="http://www.w3.org/1999/xlink">
 <defs>
  <style type="text/css">
   <![CDATA[
    .str0 {stroke:#EBEBE7;stroke-width:3.33071}
    .fil0 {fill:#EBEBE7}
   ]]>
  </style>
 </defs>
 <g id="Layer_x0020_1">
  <metadata id="CorelCorpID_0Corel-Layer"/>
  <path class="fil0 str0" d="M500 196c-83,0 -93,0 -125,2 -111,5 -172,66 -177,177 -2,32 -2,42 -2,125 0,83 0,93 2,125 5,111 66,172 177,177 32,2 42,2 125,2 83,0 93,0 125,-2 111,-5 172,-66 177,-177 2,-32 2,-42 2,-125 0,-83 0,-93 -2,-125 -5,-111 -66,-172 -177,-177 -32,-2 -42,-2 -125,-2l0 0zm0 55c81,0 91,0 123,2 82,3 121,42 124,124 2,32 2,42 2,123 0,81 0,91 -2,123 -3,82 -42,121 -124,124 -32,2 -42,2 -123,2 -81,0 -91,0 -123,-2 -82,-3 -121,-43 -124,-124 -2,-32 -2,-42 -2,-123 0,-81 0,-91 2,-123 3,-82 42,-121 124,-124 32,-2 42,-2 123,-2l0 0z"/>
  <path class="fil0 str0" d="M500 344c-86,0 -156,70 -156,156 0,86 70,156 156,156 86,0 156,-70 156,-156 0,-86 -70,-156 -156,-156zm0 257c-56,0 -101,-45 -101,-101 0,-56 45,-101 101,-101 56,0 101,45 101,101 0,56 -45,101 -101,101z"/>
  <path class="fil0 str0" d="M662 301c-20,0 -36,17 -36,37 0,20 16,36 36,36 20,0 37,-16 37,-36 0,-20 -17,-37 -37,-37z"/>
 </g>
</svg>
