<?xml version="1.0" encoding="UTF-8"?>
<!DOCTYPE svg PUBLIC "-//W3C//DTD SVG 1.1//EN" "http://www.w3.org/Graphics/SVG/1.1/DTD/svg11.dtd">
<!-- Creator: CorelDRAW X8 -->
<svg xmlns="http://www.w3.org/2000/svg" xml:space="preserve" width="0.999992in" height="0.999992in" version="1.1" style="shape-rendering:geometricPrecision; text-rendering:geometricPrecision; image-rendering:optimizeQuality; fill-rule:evenodd; clip-rule:evenodd"
viewBox="0 0 1000 1000"
 xmlns:xlink="http://www.w3.org/1999/xlink">
 <defs>
  <style type="text/css">
   <![CDATA[
    .str0 {stroke:#EBEBE7;stroke-width:19.9961;stroke-linecap:round;stroke-linejoin:round}
    .fil0 {fill:none}
   ]]>
  </style>
 </defs>
 <g id="Layer_x0020_1">
  <metadata id="CorelCorpID_0Corel-Layer"/>
  <path class="fil0 str0" d="M803 312c-23,11 -46,17 -71,20 25,-16 45,-40 55,-69 -25,14 -52,24 -80,30 -22,-24 -55,-39 -91,-39 -80,0 -139,75 -121,152 -103,-5 -195,-54 -256,-129 -33,55 -17,129 38,166 -20,-1 -39,-7 -56,-15 -1,57 40,111 100,122 -17,6 -37,7 -56,3 16,49 61,86 116,87 -53,40 -118,59 -184,51 54,35 120,55 190,55 232,0 362,-195 354,-370 24,-17 46,-38 62,-64l0 0 0 0z"/>
 </g>
</svg>
