<?xml version="1.0" encoding="UTF-8"?>
<!DOCTYPE svg PUBLIC "-//W3C//DTD SVG 1.1//EN" "http://www.w3.org/Graphics/SVG/1.1/DTD/svg11.dtd">
<!-- Creator: CorelDRAW X8 -->
<svg xmlns="http://www.w3.org/2000/svg" xml:space="preserve" width="0.999992in" height="0.999992in" version="1.1" style="shape-rendering:geometricPrecision; text-rendering:geometricPrecision; image-rendering:optimizeQuality; fill-rule:evenodd; clip-rule:evenodd"
viewBox="0 0 1000 1000"
 xmlns:xlink="http://www.w3.org/1999/xlink">
 <defs>
  <style type="text/css">
   <![CDATA[
    .str0 {stroke:#EBEBE7;stroke-width:19.9961;stroke-linecap:round;stroke-linejoin:round}
    .fil0 {fill:none}
   ]]>
  </style>
 </defs>
 <g id="Layer_x0020_1">
  <metadata id="CorelCorpID_0Corel-Layer"/>
  <path class="fil0 str0" d="M197 803l43 -156c-27,-46 -41,-97 -41,-150 0,-165 135,-301 302,-301 81,0 157,32 214,89 57,56 88,132 88,213 0,165 -136,300 -302,300 -50,0 -100,-13 -144,-36l-160 41zm167 -96c43,25 83,40 137,40 138,0 251,-112 251,-250 0,-138 -112,-250 -251,-250 -138,0 -250,113 -250,250 0,56 15,98 44,142l-26 93 95 -25 0 0zm289 -138c-2,-4 -7,-5 -14,-9 -8,-3 -45,-22 -52,-24 -7,-3 -11,-4 -17,3 -5,8 -19,25 -24,30 -4,4 -8,5 -16,2 -7,-4 -32,-12 -60,-38 -23,-19 -38,-44 -43,-52 -4,-7 0,-11 4,-15 3,-3 7,-9 11,-13 4,-4 5,-8 7,-12 3,-6 2,-10 0,-14 -2,-4 -17,-41 -24,-56 -6,-14 -12,-12 -16,-12l-15 -1c-5,0 -13,2 -20,10 -7,8 -26,25 -26,62 0,37 27,73 31,78 3,5 53,81 129,114 17,7 31,12 42,16 18,5 35,4 48,2 15,-2 45,-18 51,-36 6,-17 6,-32 4,-35l0 0 0 0z"/>
 </g>
</svg>
