<?xml version="1.0" encoding="UTF-8"?>
<!DOCTYPE svg PUBLIC "-//W3C//DTD SVG 1.1//EN" "http://www.w3.org/Graphics/SVG/1.1/DTD/svg11.dtd">
<!-- Creator: CorelDRAW X8 -->
<svg xmlns="http://www.w3.org/2000/svg" xml:space="preserve" width="360px" height="208px" version="1.1" style="shape-rendering:geometricPrecision; text-rendering:geometricPrecision; image-rendering:optimizeQuality; fill-rule:evenodd; clip-rule:evenodd"
viewBox="0 0 1200 693"
 xmlns:xlink="http://www.w3.org/1999/xlink">
 <defs>
  <style type="text/css">
   <![CDATA[
    .fil0 {fill:#262626;fill-rule:nonzero}
   ]]>
  </style>
 </defs>
 <g id="Layer_x0020_1">
  <metadata id="CorelCorpID_0Corel-Layer"/>
  <path class="fil0" d="M1011 0l162 281 0 -281 27 0 0 693 -27 0 0 -280 -162 280 -822 0c-54,-93 -108,-187 -162,-280l0 280 -27 0 0 -693 27 0 0 281c54,-94 108,-188 162,-281l822 0zm-384 66l0 561 161 -280 -161 -281zm17 571l486 -280 -324 0 -162 280zm486 -300l-486 -281 162 281 324 0zm-557 290l0 -561 -162 281 162 280zm-17 -571l-485 281 323 0 162 -281zm-486 301l486 280 -162 -280 -324 0zm601 -347l485 281 -162 -281 -323 0zm485 393l-486 280 324 0 162 -280zm-626 280l-486 -280 162 280 324 0zm-486 -392l485 -281 -323 0 -162 281z"/>
 </g>
</svg>
