<?xml version="1.0" encoding="UTF-8"?>
<!DOCTYPE svg PUBLIC "-//W3C//DTD SVG 1.1//EN" "http://www.w3.org/Graphics/SVG/1.1/DTD/svg11.dtd">
<!-- Creator: CorelDRAW X8 -->
<svg xmlns="http://www.w3.org/2000/svg" xml:space="preserve" width="360px" height="208px" version="1.1" style="shape-rendering:geometricPrecision; text-rendering:geometricPrecision; image-rendering:optimizeQuality; fill-rule:evenodd; clip-rule:evenodd"
viewBox="0 0 1200 693"
 xmlns:xlink="http://www.w3.org/1999/xlink">
 <defs>
  <style type="text/css">
   <![CDATA[
    .fil0 {fill:#262626;fill-rule:nonzero}
   ]]>
  </style>
 </defs>
 <g id="Layer_x0020_1">
  <metadata id="CorelCorpID_0Corel-Layer"/>
  <path class="fil0" d="M27 0l0 301 146 -85 0 -201 -26 -15 106 0 -26 15 0 170 320 -185 106 0 320 185 0 -170 -26 -15 106 0 -26 15 0 201 146 85 0 -301 27 0 0 693 -27 0 0 -69 -120 69 -106 0 -147 -85 -147 85 -106 0 -147 -85 -147 85 -106 0 -120 -69 0 69 -27 0 0 -693 27 0zm0 562l173 100 147 -84 -320 -185 0 169zm346 -30l0 -170 -173 -100 -147 85 320 185zm54 -170l0 200 146 85 0 -370 -146 85zm-27 -46l173 -100 0 -170 -320 185 147 85zm227 -100l173 100 147 -85 -320 -185 0 170zm146 146l-146 -85 0 370 146 -85 0 -200zm54 0l0 170 320 -185 -147 -85 -173 100zm26 216l147 84 173 -100 0 -169 -320 185z"/>
 </g>
</svg>
