<?xml version="1.0" encoding="UTF-8"?>
<!DOCTYPE svg PUBLIC "-//W3C//DTD SVG 1.1//EN" "http://www.w3.org/Graphics/SVG/1.1/DTD/svg11.dtd">
<!-- Creator: CorelDRAW X8 -->
<svg xmlns="http://www.w3.org/2000/svg" xml:space="preserve" width="1.13999in" height="0.659992in" version="1.1" style="shape-rendering:geometricPrecision; text-rendering:geometricPrecision; image-rendering:optimizeQuality; fill-rule:evenodd; clip-rule:evenodd"
viewBox="0 0 1140 660"
 xmlns:xlink="http://www.w3.org/1999/xlink">
 <defs>
  <style type="text/css">
   <![CDATA[
    .fil0 {fill:#262626;fill-rule:nonzero}
   ]]>
  </style>
 </defs>
 <g id="Layer_x0020_1">
  <metadata id="CorelCorpID_0Corel-Layer"/>
  <path class="fil0" d="M1120 660l0 -75 -130 75 -80 0 -150 -87 -150 87 0 0 -80 0 -150 -87 -150 87 -80 0 -130 -75 0 75 -20 0 0 -660 20 0 0 295 150 -86 0 -198 -20 -11 80 0 -20 11 0 174 320 -185 80 0 320 185 0 -174 -20 -11 80 0 -20 11 0 198 150 86 0 -295 20 0 0 660 -20 0zm0 -121l0 -174 -320 185 150 87 170 -98zm-530 86l150 -86 0 -198 -150 -86 0 370zm190 -110l320 -185 -150 -87 -170 98 0 174zm-230 110l0 -370 -150 86 0 198 150 86zm-530 -260l0 174 170 98 150 -87 -320 -185zm20 -35l320 185 0 -174 -170 -98 -150 87zm510 -295l-320 185 150 87 170 -98 0 -174zm40 0l0 174 170 98 150 -87 -320 -185z"/>
 </g>
</svg>
