<?xml version="1.0" encoding="UTF-8"?>
<!DOCTYPE svg PUBLIC "-//W3C//DTD SVG 1.1//EN" "http://www.w3.org/Graphics/SVG/1.1/DTD/svg11.dtd">
<!-- Creator: CorelDRAW X8 -->
<svg xmlns="http://www.w3.org/2000/svg" xml:space="preserve" width="360px" height="208px" version="1.1" style="shape-rendering:geometricPrecision; text-rendering:geometricPrecision; image-rendering:optimizeQuality; fill-rule:evenodd; clip-rule:evenodd"
viewBox="0 0 1200 693"
 xmlns:xlink="http://www.w3.org/1999/xlink">
 <defs>
  <style type="text/css">
   <![CDATA[
    .fil0 {fill:#262626;fill-rule:nonzero}
   ]]>
  </style>
 </defs>
 <g id="Layer_x0020_1">
  <metadata id="CorelCorpID_0Corel-Layer"/>
  <path class="fil0" d="M0 233l403 -233 105 0 92 53 92 -53 105 0c134,78 269,155 403,233l0 61 -91 53 91 52 0 62c-134,77 -269,155 -403,232l-105 0 -92 -53 -92 53 -105 0 -403 -232 0 -62 91 -52 -91 -53 0 -61zm456 -202l-403 232 91 53 403 -232 -91 -53zm197 53l403 232 91 -53 -403 -232 -91 53zm494 346l-91 -53 -403 233 91 52 403 -232zm-145 -83l-402 -233 -402 233 402 232 402 -232zm-455 263l-403 -233 -91 53 403 232 91 -52z"/>
 </g>
</svg>
