<?xml version="1.0" encoding="UTF-8"?>
<!DOCTYPE svg PUBLIC "-//W3C//DTD SVG 1.1//EN" "http://www.w3.org/Graphics/SVG/1.1/DTD/svg11.dtd">
<!-- Creator: CorelDRAW X8 -->
<svg xmlns="http://www.w3.org/2000/svg" xml:space="preserve" width="1.13999in" height="0.659992in" version="1.1" style="shape-rendering:geometricPrecision; text-rendering:geometricPrecision; image-rendering:optimizeQuality; fill-rule:evenodd; clip-rule:evenodd"
viewBox="0 0 1140 660"
 xmlns:xlink="http://www.w3.org/1999/xlink">
 <defs>
  <style type="text/css">
   <![CDATA[
    .fil0 {fill:#262626;fill-rule:nonzero}
   ]]>
  </style>
 </defs>
 <g id="Layer_x0020_1">
  <metadata id="CorelCorpID_0Corel-Layer"/>
  <path class="fil0" d="M0 243l420 -243 93 0 57 33 57 -33 93 0 420 243 0 54 -57 33 57 33 0 54c-140,81 -280,162 -420,243l-93 0 -57 -33 -57 33 -93 0 -420 -243 0 -54 57 -33 -57 -33 0 -54zm616 -183l421 243 57 -33 -421 -243 -57 33zm-92 540l-421 -243 -57 33 421 243 57 -33zm-421 -297l421 -243 -57 -33 -421 243 57 33zm934 54l-421 243 57 33 421 -243 -57 -33zm-467 -270l-420 243 420 243 420 -243 -420 -243z"/>
 </g>
</svg>
