<?xml version="1.0" encoding="UTF-8"?>
<!DOCTYPE svg PUBLIC "-//W3C//DTD SVG 1.1//EN" "http://www.w3.org/Graphics/SVG/1.1/DTD/svg11.dtd">
<!-- Creator: CorelDRAW X8 -->
<svg xmlns="http://www.w3.org/2000/svg" xml:space="preserve" width="1.13999in" height="0.659992in" version="1.1" style="shape-rendering:geometricPrecision; text-rendering:geometricPrecision; image-rendering:optimizeQuality; fill-rule:evenodd; clip-rule:evenodd"
viewBox="0 0 1140 660"
 xmlns:xlink="http://www.w3.org/1999/xlink">
 <defs>
  <style type="text/css">
   <![CDATA[
    .fil0 {fill:#262626;fill-rule:nonzero}
   ]]>
  </style>
 </defs>
 <g id="Layer_x0020_1">
  <metadata id="CorelCorpID_0Corel-Layer"/>
  <path class="fil0" d="M119 372l76 -44 -72 -42 -77 44 73 42zm497 -372l73 42 73 -42 93 0 -119 69 281 163 123 -71 0 54 -76 44 76 44 0 0 0 54 -73 42 73 42 0 54 -119 -69 -143 82 -139 81 122 71 -92 0 -76 -44 -77 44 -92 0 -77 -44 -76 44 -92 0 122 -71 -282 -163 -119 69 0 -54 73 -42 -73 -42 0 0 0 -54 0 0 76 -44 -76 -44 0 -54 123 71 281 -163 -119 -69 93 0 73 42 73 -42 92 0zm478 330l-77 -44 -72 42c25,15 50,29 76,44l73 -42zm-451 -261c-24,-14 -49,-28 -73,-42l-73 42 73 42 73 -42zm328 190l-282 -163 -73 42 282 163c24,-14 49,-28 73,-42zm-401 374c25,-15 51,-29 76,-44l-76 -44 -76 44 76 44zm-328 -332l282 -163 -73 -42 -282 163 73 42zm328 -136l-282 163 282 163 282 -163 -282 -163zm-328 190l-76 44 281 163 0 0 77 -44 -282 -163zm732 44l-76 -44 -282 163 77 44 281 -163z"/>
 </g>
</svg>
