<?xml version="1.0" encoding="UTF-8"?>
<!DOCTYPE svg PUBLIC "-//W3C//DTD SVG 1.1//EN" "http://www.w3.org/Graphics/SVG/1.1/DTD/svg11.dtd">
<!-- Creator: CorelDRAW X8 -->
<svg xmlns="http://www.w3.org/2000/svg" xml:space="preserve" width="1.13999in" height="0.659992in" version="1.1" style="shape-rendering:geometricPrecision; text-rendering:geometricPrecision; image-rendering:optimizeQuality; fill-rule:evenodd; clip-rule:evenodd"
viewBox="0 0 1140 660"
 xmlns:xlink="http://www.w3.org/1999/xlink">
 <defs>
  <style type="text/css">
   <![CDATA[
    .fil0 {fill:#262626;fill-rule:nonzero}
   ]]>
  </style>
 </defs>
 <g id="Layer_x0020_1">
  <metadata id="CorelCorpID_0Corel-Layer"/>
  <path class="fil0" d="M592 38l0 45 46 27 0 -46 -46 -26zm0 76l0 432 46 -27 0 -378 -46 -27zm0 463l0 45 46 -26 0 -46 -46 27zm-44 45l0 -45 -46 -27 0 46 46 26zm0 -76l0 -432 -46 27 0 378 46 27zm0 -463l0 -45 -46 26 0 46 46 -27zm117 43l321 189 43 -26 -364 -210 0 47zm347 204l43 26 45 -26 -45 -26 -43 26zm58 64l0 45 50 -29 0 -45 -50 29zm0 76l0 189 -27 0 0 -173 -294 173 -53 0 -43 -25 -45 25 -76 0 -45 -25 -43 25 -53 0 -294 -173 0 173 -27 0 0 -189 -50 -29 0 218 -20 0 0 -658 20 0 0 218 50 -29 0 -189 27 0 0 173 294 -173 0 0 53 0 43 25 45 -25 0 0 76 0 0 0 45 25 43 -25 53 0 0 0 294 173 0 -173 27 0 0 189 50 29 0 -218 20 0 0 658 -20 0 0 -218 -50 29zm-27 -15l0 -46 -364 209 43 26 321 -189zm-14 -84l-43 -26 -321 189 0 46 364 -209zm-70 -41l-294 -173 0 346 294 -173zm111 -109l0 45 50 29 0 -45 -50 -29zm-27 30l0 -46 -321 -189 -43 26 364 209zm-973 188l0 -45 -50 -29 0 45 50 29zm15 -83l43 -26 -43 -26 -45 26 45 26zm69 -41l321 -189 0 -47 -364 210 43 26zm321 -158l-294 173 294 173 0 -346zm-321 188l-43 26 364 209 0 -46 -321 -189zm-57 64l0 46 321 189 43 -26 -364 -209zm-27 -143l0 -45 -50 29 0 45 50 -29zm27 -61l0 46 364 -209 -43 -26 -321 189z"/>
 </g>
</svg>
