<?xml version="1.0" encoding="UTF-8"?>
<!DOCTYPE svg PUBLIC "-//W3C//DTD SVG 1.1//EN" "http://www.w3.org/Graphics/SVG/1.1/DTD/svg11.dtd">
<!-- Creator: CorelDRAW X8 -->
<svg xmlns="http://www.w3.org/2000/svg" xml:space="preserve" width="1.19999in" height="0.693331in" version="1.1" style="shape-rendering:geometricPrecision; text-rendering:geometricPrecision; image-rendering:optimizeQuality; fill-rule:evenodd; clip-rule:evenodd"
viewBox="0 0 1200 693"
 xmlns:xlink="http://www.w3.org/1999/xlink">
 <defs>
  <style type="text/css">
   <![CDATA[
    .fil0 {fill:#262626;fill-rule:nonzero}
   ]]>
  </style>
 </defs>
 <g id="Layer_x0020_1">
  <metadata id="CorelCorpID_0Corel-Layer"/>
  <path class="fil0" d="M24 302l46 -26 0 -51 -46 27 0 50zm46 -107l0 -195 27 0 0 179c103,-60 207,-119 310,-179l52 0 44 25 44 -25 106 0 44 25 43 -25 53 0c103,60 207,119 310,179l0 -179 27 0 0 195 46 26 0 -221 24 0 0 693 -24 0 0 -221 -46 27 0 194 -27 0 0 -179c-103,60 -207,120 -310,179l-52 0 -44 -25 -44 25 -106 0 -44 -25 -44 25 -52 0c-103,-59 -207,-119 -310,-179l0 179 -27 0 0 -194 -46 -27 0 221 -27 0 0 -693 27 0 0 221 46 -26zm27 15l0 50 380 -219 -44 -25 -336 194zm380 443c-127,-74 -254,-147 -380,-220l0 50 336 195 44 -25zm-407 -185l0 -50 -46 -27 0 51 46 26zm433 -121l0 -179 -310 179 310 179 0 -179 0 0zm0 -210l0 -50 -380 219 44 25c112,-64 224,-129 336,-194zm0 470l0 -51c-112,-64 -224,-129 -336,-194l-44 25 380 220zm27 -536l0 51 43 -25 0 -51 -43 25zm0 81l0 195 0 0 0 194 43 25 0 -439 -43 25zm0 420l0 50 43 25 0 -50 -43 -25zm193 -531l380 219 0 -50 -336 -194 -44 25zm407 184l0 51 46 26 0 -50 -46 -27zm46 217l0 -51 -46 27 0 50 46 -26zm-73 41l0 -50c-126,73 -253,146 -380,220l44 25 336 -195zm-433 -136l0 -195 -43 -25 0 439 43 -25 0 -194 0 0zm0 -225l0 -51 -43 -25 0 51 43 25zm0 500l0 -50 -43 25 0 50 43 -25zm27 -535l0 50c112,65 224,130 336,194l44 -25 -380 -219zm0 81l0 179 0 0 0 179 310 -179 -310 -179zm0 388l0 51 380 -220 -44 -25 -336 194zm-600 -184l43 -25 -43 -25 -44 25 44 25zm963 -25l43 25 44 -25 -44 -25 -43 25z"/>
 </g>
</svg>
