<?xml version="1.0" encoding="UTF-8"?>
<!DOCTYPE svg PUBLIC "-//W3C//DTD SVG 1.1//EN" "http://www.w3.org/Graphics/SVG/1.1/DTD/svg11.dtd">
<!-- Creator: CorelDRAW X8 -->
<svg xmlns="http://www.w3.org/2000/svg" xml:space="preserve" width="1.15333in" height="0.666661in" version="1.1" style="shape-rendering:geometricPrecision; text-rendering:geometricPrecision; image-rendering:optimizeQuality; fill-rule:evenodd; clip-rule:evenodd"
viewBox="0 0 1153 667"
 xmlns:xlink="http://www.w3.org/1999/xlink">
 <defs>
  <style type="text/css">
   <![CDATA[
    .fil0 {fill:#262626;fill-rule:nonzero}
   ]]>
  </style>
 </defs>
 <g id="Layer_x0020_1">
  <metadata id="CorelCorpID_0Corel-Layer"/>
  <g>
   <path class="fil0" d="M1153 35l-83 49 83 48 0 70 -144 -83 -83 48 227 131 0 70 -15 -8 0 0 -15 -9 0 0 -258 -149 -84 48 372 215 0 70 -432 -250 -84 48 387 224 0 0 129 74 0 35 -60 0 0 0 -84 -48 -83 48 -122 0 145 -83 -84 -48 -228 131 -121 0 45 -26 0 0 15 -9 1 0 227 -131 -83 -49 -273 158 -1 0 -98 57 -121 0 189 -109 0 0 243 -140 -83 -49 -274 158 0 0 -5 3 0 0 -238 137 1 0 -61 0 0 -35 0 -96 0 -70 144 83 84 -48 -228 -132 0 -70 0 1 0 0 15 8 0 0 273 158 20 -11 64 -38 -243 -140 0 0 -129 -74 0 -70 160 92 -1 0 274 158 83 -49 -238 -137 0 0 -5 -3 0 0 -273 -158 0 0 0 -35 61 0 83 49 84 -49 121 0 -144 84 29 17 33 19 21 12 228 -132 121 0 -30 18 0 0 -15 9 0 0 -243 140 83 48 372 -215 122 0 -433 250 52 30 32 18 0 0 0 0 129 -74 0 0 387 -224 60 0 0 35 0 0zm-1151 596l82 -48 -84 -48 2 96zm-2 0l0 0 0 0z"/>
  </g>
 </g>
</svg>
