<?xml version="1.0" encoding="UTF-8"?>
<!DOCTYPE svg PUBLIC "-//W3C//DTD SVG 1.1//EN" "http://www.w3.org/Graphics/SVG/1.1/DTD/svg11.dtd">
<!-- Creator: CorelDRAW X8 -->
<svg xmlns="http://www.w3.org/2000/svg" xml:space="preserve" width="360px" height="208px" version="1.1" style="shape-rendering:geometricPrecision; text-rendering:geometricPrecision; image-rendering:optimizeQuality; fill-rule:evenodd; clip-rule:evenodd"
viewBox="0 0 1200 693"
 xmlns:xlink="http://www.w3.org/1999/xlink">
 <defs>
  <style type="text/css">
   <![CDATA[
    .fil0 {fill:#262626;fill-rule:nonzero}
   ]]>
  </style>
 </defs>
 <g id="Layer_x0020_1">
  <metadata id="CorelCorpID_0Corel-Layer"/>
  <polygon class="fil0" points="846,693 997,606 900,551 653,693 546,693 847,520 750,464 353,693 246,693 697,433 600,377 53,693 -3,693 -3,664 97,606 -3,549 -3,487 150,576 247,520 -3,376 -3,314 300,489 397,433 -3,202 -3,141 450,403 547,347 -3,29 -3,0 53,0 150,56 247,0 354,0 203,87 300,143 547,0 654,0 353,173 450,229 847,0 954,0 503,260 600,316 1147,0 1200,0 1200,31 1103,87 1200,143 1200,204 1050,118 953,173 1200,316 1200,377 900,204 803,260 1200,489 1200,551 750,291 653,347 1200,662 1200,693 1147,693 1050,637 953,693 "/>
 </g>
</svg>
