<?xml version="1.0" encoding="UTF-8"?>
<!DOCTYPE svg PUBLIC "-//W3C//DTD SVG 1.1//EN" "http://www.w3.org/Graphics/SVG/1.1/DTD/svg11.dtd">
<!-- Creator: CorelDRAW X8 -->
<svg xmlns="http://www.w3.org/2000/svg" xml:space="preserve" width="2.39999in" height="1.38666in" version="1.1" style="shape-rendering:geometricPrecision; text-rendering:geometricPrecision; image-rendering:optimizeQuality; fill-rule:evenodd; clip-rule:evenodd"
viewBox="0 0 2400 1387"
 xmlns:xlink="http://www.w3.org/1999/xlink">
 <defs>
  <style type="text/css">
   <![CDATA[
    .fil0 {fill:#262626;fill-rule:nonzero}
   ]]>
  </style>
 </defs>
 <g id="Layer_x0020_1">
  <metadata id="CorelCorpID_0Corel-Layer"/>
  <path class="fil0" d="M52 0l95 55 57 -55 75 0 294 284 0 -283 54 0 0 300c173,-100 347,-201 521,-301l104 0 521 301 0 -300 54 0 0 283 294 -284 75 0 57 55 95 -55 52 0 0 1387 -52 0 -95 -55 -57 55 -75 0 -294 -285 0 284 -54 0 0 -300c-173,100 -347,200 -521,301l-104 0c-174,-101 -348,-201 -521,-301l0 300 -54 0 0 -284 -294 285 -75 0 -57 -55 -95 55 -52 0 0 -1387 52 0zm143 82l231 134 -185 -179 -46 45zm1779 134l231 -134 -46 -45 -185 179zm231 1088l-230 -133 184 178 46 -45zm-1779 -133l-231 133 46 45 185 -178zm-399 -694l57 -231 -57 -15 0 246zm70 -283l23 -93 -93 -54 0 130 70 17zm677 284l185 178 46 -44 -231 -134zm258 87l19 -78 -274 -68 255 146zm32 -130l95 -380 -489 282 394 98zm177 -380l95 380 394 -98 -489 -282zm108 432l19 78 255 -146 -274 68zm46 125l46 44 185 -178 -231 134zm885 -511l23 93 70 -17 0 -130 -93 54zm36 145l57 230 0 -245 -57 15zm57 664l-57 231 57 14 0 -245zm-70 283l-23 93 93 54 0 -130 -70 -17zm-677 -285l-185 -178 -46 45 231 133zm-258 -87l-19 79 274 68 -255 -147zm-32 130l-95 381 489 -282 -394 -99zm-177 381l-95 -381 -394 99 489 282zm-108 -432l-19 -79 -255 147 274 -68zm-46 -125l-46 -45 -185 178 231 -133zm-885 511l-23 -93 -70 17 0 130 93 -54zm-36 -145l-57 -231 0 245 57 -14zm84 -1013l-19 79 274 68 -255 -147zm-32 131l-95 380 489 -282 -394 -98zm-95 489l95 380 394 -98c-163,-94 -326,-188 -489,-282zm108 432l19 78 255 -147 -274 69zm478 -203l293 -284 -293 -283 0 567zm370 -284l56 54 94 -54 -94 -54 -56 54zm83 101l23 93 70 -18 0 -130 -93 55zm36 145l57 230 0 -245 -57 15zm111 230l57 -230 -57 -15 0 245zm70 -282l23 -93 -93 -55 0 130 70 18zm50 -140l56 -54 -56 -54 -94 54 94 54zm-27 -154l-23 -93 -70 17 0 130 93 -54zm-36 -145l-57 -231 0 245 57 -14zm-111 -231l-57 231 57 14 0 -245zm-70 283l-23 93 93 54 0 -130 -70 -17zm670 -90l-293 283 293 284 0 -567zm459 848l19 -78 -274 -69 255 147zm32 -130l95 -380 -489 282 394 98zm95 -489l-95 -380 -394 98 489 282zm-108 -432l-19 -79 -255 147 274 -68zm-424 186l0 601 520 -301 -520 -300zm-1254 601l0 -601 -520 300 520 301z"/>
 </g>
</svg>
