<?xml version="1.0" encoding="UTF-8"?>
<!DOCTYPE svg PUBLIC "-//W3C//DTD SVG 1.1//EN" "http://www.w3.org/Graphics/SVG/1.1/DTD/svg11.dtd">
<!-- Creator: CorelDRAW X8 -->
<svg xmlns="http://www.w3.org/2000/svg" xml:space="preserve" width="2.27999in" height="1.31999in" version="1.1" style="shape-rendering:geometricPrecision; text-rendering:geometricPrecision; image-rendering:optimizeQuality; fill-rule:evenodd; clip-rule:evenodd"
viewBox="0 0 2280 1320"
 xmlns:xlink="http://www.w3.org/1999/xlink">
 <defs>
  <style type="text/css">
   <![CDATA[
    .fil0 {fill:#262626;fill-rule:nonzero}
   ]]>
  </style>
 </defs>
 <g id="Layer_x0020_1">
  <metadata id="CorelCorpID_0Corel-Layer"/>
  <path class="fil0" d="M1186 0l501 290 0 -290 46 0 0 275 285 -275 67 0 55 54 94 -54 46 0 0 1320 -46 0 0 0 -94 -54 -55 54 0 0 -67 0 0 0 -285 -275 0 275 -46 0 0 -290c-167,97 -334,194 -501,290l-92 0c-167,-96 -334,-193 -501,-290l0 290 -46 0 0 -275 -285 275 0 0 -67 0 0 0 -56 -54 -93 54 0 0 -46 0 0 -1320 46 0 93 54 56 -54 67 0 285 275 0 -275 46 0 0 290c167,-97 334,-194 501,-290l92 0zm-639 950l0 -580c-167,97 -334,193 -501,290l501 290zm-319 338l189 -182 -236 136 47 46zm-205 -164l63 -18 -63 -255 0 273zm108 -31l380 -110 -238 -138 -238 -137 96 385zm262 -28l-251 73 16 64 235 -137zm-296 86l-74 21 0 108 93 -54 -19 -75zm2137 -491c-167,-97 -334,-193 -501,-290l0 580c167,-97 334,-194 501,-290zm-371 445l188 183 48 -46 -236 -137zm-94 -122l380 110 95 -385 -475 275zm425 123l63 18 0 -274 -63 256zm63 66l-75 -21 -18 75 93 54 0 -108zm-119 -34l-251 -73 235 136 16 -63zm-1910 -1106l-47 46 236 136 -189 -182zm-70 86l-16 64 251 73 -235 -137zm-27 109l-96 385 476 -275 -380 -110zm-108 242l63 -255 -63 -18 0 273zm74 -300l19 -75 -93 -54 0 108 74 21zm2147 443l-95 -385 -380 110 475 275zm-106 -430l-16 -63 -235 136 251 -73zm-39 -104l-48 -46 -188 183 236 -137zm65 16l18 75 75 -21 0 -108 -93 54zm30 120l63 255 0 -273 -63 18zm-507 171l-285 275 285 275 0 -550zm-319 307l-47 46 236 136 -189 -182zm-70 86l-16 64 252 73 -236 -137zm-27 109l-95 385 475 -275 -380 -110zm-108 242l63 -255 -63 -18 0 273zm74 -300l19 -75 -93 -54 0 108 74 21zm42 -115l56 -54 -56 -54 -93 54 93 54zm89 -86l189 -182 -236 136 47 46zm-264 644l-96 -385 -379 110 475 275zm-107 -430l-15 -63 -236 136 251 -73zm-39 -104l-47 -46 -189 183 236 -137zm-81 -78l-284 -275 0 550 284 -275zm-155 -215l189 183 47 -46 -236 -137zm222 215l56 54 94 -54 -94 -54 -56 54zm79 94l19 75 75 -21 0 -108 -94 54zm30 120l64 255 0 -273 -64 18zm-424 -551l379 110 96 -385 -475 275zm424 123l64 18 0 -274 -64 256zm110 18l63 -18 -63 -255 0 273zm108 -31l380 -110 -238 -138 -237 -137 95 385zm263 -28l-252 73 16 64 236 -137zm-297 86l-74 21 0 108 93 -54 -19 -75zm-120 21l-75 -21 -19 75 94 54 0 -108zm-120 -34l-251 -73 236 136 15 -63z"/>
 </g>
</svg>
