<?xml version="1.0" encoding="UTF-8"?>
<!DOCTYPE svg PUBLIC "-//W3C//DTD SVG 1.1//EN" "http://www.w3.org/Graphics/SVG/1.1/DTD/svg11.dtd">
<!-- Creator: CorelDRAW X8 -->
<svg xmlns="http://www.w3.org/2000/svg" xml:space="preserve" width="2.36666in" height="1.36666in" version="1.1" style="shape-rendering:geometricPrecision; text-rendering:geometricPrecision; image-rendering:optimizeQuality; fill-rule:evenodd; clip-rule:evenodd"
viewBox="0 0 2367 1367"
 xmlns:xlink="http://www.w3.org/1999/xlink">
 <defs>
  <style type="text/css">
   <![CDATA[
    .fil0 {fill:#262626;fill-rule:nonzero}
   ]]>
  </style>
 </defs>
 <g id="Layer_x0020_1">
  <metadata id="CorelCorpID_0Corel-Layer"/>
  <path class="fil0" d="M1213 240l0 886c55,-12 106,-56 145,-121l2 -4 0 0 0 0 0 0c47,-82 76,-194 76,-318 0,-122 -28,-232 -74,-313l0 0c-1,-2 -2,-4 -3,-6l-1 -2c-39,-66 -90,-110 -145,-122zm14 984l0 0c-14,2 -29,4 -44,4 -30,0 -60,-5 -88,-14 -4,19 -10,38 -19,56l107 62 107 -62c-8,-18 -14,-37 -18,-56 -15,4 -30,8 -45,10zm-104 143l-76 -45c-12,16 -26,31 -41,45l-411 0 1 0c-54,-17 -108,-41 -161,-71l0 0c-53,-31 -100,-66 -141,-103 12,54 19,112 19,174l0 0 -60 0 0 0c0,-127 -30,-240 -79,-322 -39,-65 -89,-110 -144,-122l0 444 -30 0 0 -1367 30 0 0 443c55,-12 105,-56 144,-121l2 -4 1 -1c47,-82 76,-193 76,-317l60 0c0,61 -7,120 -19,174 41,-37 88,-73 141,-103 53,-31 107,-54 160,-71l0 0 411 0c15,14 29,28 41,45l77 -45 119 0 77 45c12,-17 25,-31 40,-45l411 0c53,17 107,40 160,71 53,30 101,65 142,103 -13,-54 -19,-113 -19,-174l60 0c0,122 28,233 74,314 1,2 2,4 3,6l1 2c39,65 90,109 145,121l0 -443 30 0 0 1367 -30 0 0 -444c-55,12 -106,57 -145,122l-1 3 -1 2c-47,81 -76,193 -76,317l0 0 -60 0 0 0c0,-62 6,-120 19,-174 -41,37 -89,72 -142,103 -53,30 -107,54 -160,71l-411 0 0 0c-15,-14 -28,-29 -40,-45l-76 45 -121 0zm60 -1332l-107 61c8,19 15,38 19,57 12,-4 25,-7 38,-9l0 0 1 -1 0 0 0 0 1 0 1 0 0 0 1 0 1 0 0 0 2 -1 0 0 1 0 0 0 1 0 1 0 0 0 1 0 0 0 1 0 0 0 0 0 1 0 1 -1 0 0 1 0 0 0 0 0 1 0 0 0 1 0 1 0 0 0 1 0 0 0 0 0 1 0 1 0 0 0 1 -1 0 0 1 0 0 0 1 0 1 0 0 0 1 0 0 0 0 0 1 0 1 0 0 0 1 0 0 0 1 0 0 0 0 0 1 0 1 0 0 0 1 0 0 0 1 0 0 0 1 -1 0 0 1 0 0 0 1 0 1 0 0 0 0 0 1 0 0 0 1 0 0 0 1 0 1 0 0 0 0 0 1 0 0 0 1 0 1 0 0 0 1 0 0 0 0 0 1 0 0 0 1 0 1 0 0 0 1 0 0 0 0 0 1 0 1 0 0 0 1 0 0 0 1 0 1 0 0 0 1 0 0 0 1 0 0 0 0 0 1 0 1 0 0 0 1 0 0 0 1 0 1 0 0 0 1 0 0 0 1 0 1 0 0 0 1 0 0 0 0 1 1 0 0 0 1 0 1 0 0 0 1 0 0 0 1 0 1 0 0 0 1 0 0 0 0 0 2 0 1 0 0 0 1 0 0 0 1 0 1 0 0 0 2 1 0 0 0 0 1 0 1 0 0 0 3 0 1 0 0 0 1 1 0 0 0 0 1 0 1 0 0 0 1 0 3 0 0 0 1 1 0 0 0 0 1 0 1 0 0 0 4 1 1 0 0 0 1 0 1 0 1 0 0 0 1 1 0 0 1 0c10,2 21,5 32,8 4,-19 10,-38 18,-57l-107 -61zm1154 508c-20,-2 -40,-6 -59,-13 -4,20 -10,39 -18,57l77 45 0 -89zm-107 96c-12,16 -25,31 -40,44 15,14 28,29 40,45l77 -45 -77 -44zm30 141c8,18 14,37 18,56 19,-6 39,-10 59,-12l0 -89 -77 45zm-783 -271c13,55 19,113 19,174 0,61 -6,120 -19,174 41,-37 89,-72 142,-103l1 0c52,-31 106,-54 159,-71 -53,-16 -107,-40 -160,-70 -53,-31 -101,-66 -142,-104zm-68 526c-37,66 -50,132 -33,186l768 -444c-38,-41 -102,-63 -178,-64l-1 0c-3,0 -5,0 -8,0 -93,1 -203,32 -308,93l0 0c-110,63 -193,146 -240,229zm-3 237c38,42 102,64 178,65 95,1 208,-30 318,-93 109,-63 192,-146 239,-229 37,-66 50,-132 33,-186l-768 443zm178 -1242c-76,1 -140,22 -178,64l768 443c17,-53 4,-119 -34,-185 -46,-83 -129,-166 -239,-229 -109,-63 -222,-94 -317,-93zm-208 116c-17,54 -4,119 34,186 46,83 129,166 239,229 109,63 222,94 317,92 76,-1 140,-22 178,-64l-768 -443zm-1269 441c-8,-18 -14,-37 -19,-57 -19,7 -38,11 -58,13l0 89 77 -45zm-77 237c20,2 39,6 58,12 5,-19 11,-38 19,-56l-77 -45 0 89zm107 -96c12,-16 25,-31 40,-45 -15,-13 -28,-28 -40,-44l-77 44 77 45zm1016 398l0 -886c-55,12 -105,56 -144,122l-2 3 0 0 0 1 0 0c-47,81 -76,193 -76,317 0,126 30,240 78,322 39,65 89,109 144,121zm-264 -269c-12,-54 -18,-113 -18,-174 0,-61 6,-119 18,-174 -41,38 -88,73 -141,104l-1 0c-52,30 -106,54 -159,70 53,17 107,40 160,71l0 0c53,31 100,66 141,103zm-85 -826c-6,0 -11,0 -17,0 -10,0 -21,0 -32,0 -89,4 -191,35 -290,92 -109,63 -192,146 -239,229 -37,66 -50,132 -33,185l767 -443c-34,-38 -89,-59 -156,-63zm-396 682l-5 0 -3 0c-76,1 -139,23 -177,64l767 444c18,-54 4,-120 -33,-186 -46,-83 -130,-166 -239,-229l0 0c-106,-61 -216,-92 -310,-93zm549 -381c37,-67 51,-132 33,-186l-767 443c37,42 100,63 175,64l2 0c4,0 9,0 14,0 92,-1 200,-32 304,-92l0 0c109,-63 193,-146 239,-229zm-764 497c-17,54 -4,120 33,186 47,83 130,166 239,229l0 0c109,63 223,94 318,92 76,0 139,-22 177,-64l-767 -443z"/>
 </g>
</svg>
