<?xml version="1.0" encoding="UTF-8"?>
<!DOCTYPE svg PUBLIC "-//W3C//DTD SVG 1.1//EN" "http://www.w3.org/Graphics/SVG/1.1/DTD/svg11.dtd">
<!-- Creator: CorelDRAW X8 -->
<svg xmlns="http://www.w3.org/2000/svg" xml:space="preserve" width="1.19999in" height="0.693331in" version="1.1" style="shape-rendering:geometricPrecision; text-rendering:geometricPrecision; image-rendering:optimizeQuality; fill-rule:evenodd; clip-rule:evenodd"
viewBox="0 0 1200 693"
 xmlns:xlink="http://www.w3.org/1999/xlink">
 <defs>
  <style type="text/css">
   <![CDATA[
    .fil0 {fill:#262626;fill-rule:nonzero}
   ]]>
  </style>
 </defs>
 <g id="Layer_x0020_1">
  <metadata id="CorelCorpID_0Corel-Layer"/>
  <path class="fil0" d="M27 0l0 169c21,-7 40,-22 55,-43 23,-32 38,-77 38,-126l53 0c0,19 -2,38 -5,56 14,-12 29,-23 45,-32l0 0c17,-10 35,-18 52,-24l234 0c6,6 12,12 17,18l31 -18 106 0 31 18c5,-6 11,-12 17,-18l234 0c17,6 35,14 51,24 17,9 32,20 46,32 -3,-18 -5,-37 -5,-56l53 0c0,49 15,94 38,126 15,21 34,36 55,43l0 -169 27 0 0 693 -27 0 0 -169c-21,7 -40,23 -55,44 -23,31 -38,76 -38,125l-53 0c0,-19 2,-38 5,-56 -14,12 -29,23 -45,33l0 0c-17,10 -35,17 -52,23l-234 0c-6,-5 -12,-11 -17,-18l-31 18 -106 0 -31 -18c-5,7 -11,13 -17,18l-234 0c-17,-6 -35,-13 -52,-23 -16,-10 -31,-21 -45,-33 3,18 5,37 5,56l-53 0c0,-49 -15,-94 -38,-125 -15,-21 -34,-37 -55,-44l0 169 -27 0 0 -693 27 0zm406 627l-293 -169c-4,22 0,46 10,70 16,36 47,71 90,96 43,24 88,34 128,30 26,-3 48,-12 65,-27zm-97 -280c17,6 34,13 50,23 17,10 32,20 46,32 -3,-18 -5,-36 -5,-55 0,-19 2,-38 5,-56 -14,12 -29,23 -45,32l0 0c-17,10 -34,18 -51,24zm-104 39c-26,3 -48,12 -65,26l293 169c4,-21 0,-46 -10,-69 -16,-37 -47,-71 -90,-96 -43,-25 -89,-34 -128,-30zm535 -320l293 169c4,-22 0,-46 -10,-70 -16,-36 -47,-71 -90,-95 -43,-25 -89,-35 -128,-31 -26,3 -48,12 -65,27zm97 281c-17,-6 -34,-14 -50,-24 -17,-9 -32,-20 -46,-32 3,18 5,37 5,56 0,19 -2,37 -5,55 14,-12 29,-22 45,-32l0 0c17,-10 34,-17 51,-23zm-124 -235c-4,22 0,46 10,70 16,36 47,71 90,95 43,25 88,35 128,30 26,-2 48,-11 65,-26l-293 -169zm-713 153l0 36 31 -18c-3,-8 -6,-16 -8,-24 -7,3 -15,5 -23,6zm1115 18l31 18 0 -36c-8,-1 -16,-3 -23,-6 -2,8 -5,16 -8,24zm31 145l0 -35 -31 18c3,7 6,15 8,23 7,-2 15,-4 23,-6zm-1115 -17l-31 -18 0 36c8,1 16,3 23,5 2,-8 5,-16 8,-23zm26 -46c5,-7 11,-13 17,-18 -6,-6 -12,-12 -17,-18l-31 18 31 18zm574 264c-3,-8 -6,-15 -8,-23 -7,2 -15,4 -23,5l0 36 31 -18zm-85 -18c-8,-1 -16,-3 -23,-5 -2,8 -5,15 -8,23l31 18 0 -36zm543 -282c-5,6 -11,12 -17,18 6,5 12,11 17,18l31 -18 -31 -18zm-574 -265c3,8 6,16 8,23 7,-2 15,-4 23,-5l0 -36 -31 18zm85 18c8,1 16,3 23,5 2,-7 5,-15 8,-23l-31 -18 0 36zm433 376l-293 169c17,15 39,24 65,27 39,4 85,-6 128,-30l1 -1c42,-24 73,-59 89,-95 10,-24 14,-48 10,-70zm-310 54c-10,23 -14,48 -10,69l293 -169c-17,-14 -39,-23 -65,-26 -39,-4 -85,5 -128,30l-1 0c-42,25 -73,60 -89,96zm-610 -277l293 -169c-17,-15 -39,-24 -65,-27 -39,-4 -85,6 -128,31l-1 0c-42,25 -73,59 -89,95 -10,24 -14,48 -10,70zm27 46c17,15 39,24 65,26 39,5 85,-5 128,-30l1 0c42,-25 73,-59 89,-95 10,-24 14,-48 10,-70l-293 169zm515 -60c-15,-21 -34,-36 -55,-43l0 338c21,-8 40,-23 55,-44 23,-31 38,-76 38,-125 0,-50 -15,-94 -38,-126zm-109 -43c-21,7 -40,22 -55,43 -23,32 -38,76 -38,126 0,49 15,94 38,125 15,21 34,36 55,44l0 -338z"/>
 </g>
</svg>
