<?xml version="1.0" encoding="UTF-8"?>
<!DOCTYPE svg PUBLIC "-//W3C//DTD SVG 1.1//EN" "http://www.w3.org/Graphics/SVG/1.1/DTD/svg11.dtd">
<!-- Creator: CorelDRAW X8 -->
<svg xmlns="http://www.w3.org/2000/svg" xml:space="preserve" width="1.13999in" height="0.659992in" version="1.1" style="shape-rendering:geometricPrecision; text-rendering:geometricPrecision; image-rendering:optimizeQuality; fill-rule:evenodd; clip-rule:evenodd"
viewBox="0 0 1140 660"
 xmlns:xlink="http://www.w3.org/1999/xlink">
 <defs>
  <style type="text/css">
   <![CDATA[
    .fil0 {fill:#262626;fill-rule:nonzero}
   ]]>
  </style>
 </defs>
 <g id="Layer_x0020_1">
  <metadata id="CorelCorpID_0Corel-Layer"/>
  <path class="fil0" d="M0 418l46 -27 -46 -26 0 -70 46 -26 -46 -27 0 -31 365 -211 53 0 46 27 46 -27 120 0 46 27 46 -27 53 0 365 211 0 31 -46 27 46 26 0 70 -46 26 46 27 0 31c-122,70 -243,141 -365,211l-53 0 -46 -27 -46 27 -120 0 -46 -27 -46 27 -53 0 -365 -211 0 -31zm106 -61l46 -27 -46 -27 -46 27 46 27zm418 -296l46 27 46 -27 -46 -26 -46 26zm510 242l-46 27 46 27 46 -27 -46 -27zm-418 296l-46 -27 -46 27 46 26 46 -26zm-179 19l-364 -211 -46 26 364 212 46 -27zm-364 -365l365 -211 -47 -27 -364 212 46 26zm629 -211l365 211 46 -26 -364 -212 -47 27zm365 365l-365 211 47 27 364 -212 -46 -26zm-934 -35l364 211 46 -26 -364 -212 -46 27zm510 211l364 -211 -46 -27 -364 212 46 26zm365 -295l-365 -211 -46 26 364 212 47 -27zm-511 -211l-364 211 46 27 364 -212 -46 -26zm-292 253l365 211 365 -211 -365 -211 -365 211z"/>
 </g>
</svg>
