<?xml version="1.0" encoding="UTF-8"?>
<!DOCTYPE svg PUBLIC "-//W3C//DTD SVG 1.1//EN" "http://www.w3.org/Graphics/SVG/1.1/DTD/svg11.dtd">
<!-- Creator: CorelDRAW X8 -->
<svg xmlns="http://www.w3.org/2000/svg" xml:space="preserve" width="1.19999in" height="0.693331in" version="1.1" style="shape-rendering:geometricPrecision; text-rendering:geometricPrecision; image-rendering:optimizeQuality; fill-rule:evenodd; clip-rule:evenodd"
viewBox="0 0 1200 693"
 xmlns:xlink="http://www.w3.org/1999/xlink">
 <defs>
  <style type="text/css">
   <![CDATA[
    .fil0 {fill:#262626;fill-rule:nonzero}
   ]]>
  </style>
 </defs>
 <g id="Layer_x0020_1">
  <metadata id="CorelCorpID_0Corel-Layer"/>
  <path class="fil0" d="M653 0l41 24 41 -24 53 0c137,79 275,159 412,238l0 31 -41 23 41 24 0 61 -41 24 41 24 0 30c-137,80 -275,159 -412,238l-52 0 -42 -24 -41 24 -106 0 -41 -24 -42 24 -52 0c-137,-79 -275,-158 -412,-238l0 -30 41 -24 -41 -24 0 -61 41 -24 -41 -23 0 -31c137,-79 275,-159 412,-238l52 0 42 24 41 -24 106 0zm68 39l411 238 41 -24 -411 -237 -41 23zm-242 615c-137,-79 -274,-158 -411,-238l-41 24 411 238 41 -24zm-385 -284l41 -23 -41 -24 -41 24 41 23zm68 -39l411 -237 -41 -24 -411 238 41 23zm438 -253l41 -23 -41 -24 -41 24 41 23zm506 245l-41 24 41 23 41 -23 -41 -24zm-68 39c-137,79 -274,159 -411,238l41 23 411 -237 -41 -24zm-438 253l-41 24 41 23 41 -23 -41 -24zm68 -545l-41 24 411 237 41 -23 -411 -238zm-68 39l-412 238 412 237 412 -237 -412 -238zm-438 253l-41 24 411 237 41 -23 -411 -238zm970 54l-411 238 41 24 411 -238 -41 -24zm-1064 -139l411 -238 -41 -23 -411 237 41 24z"/>
 </g>
</svg>
