<?xml version="1.0" encoding="UTF-8"?>
<!DOCTYPE svg PUBLIC "-//W3C//DTD SVG 1.1//EN" "http://www.w3.org/Graphics/SVG/1.1/DTD/svg11.dtd">
<!-- Creator: CorelDRAW X8 -->
<svg xmlns="http://www.w3.org/2000/svg" xml:space="preserve" width="1.19999in" height="0.693331in" version="1.1" style="shape-rendering:geometricPrecision; text-rendering:geometricPrecision; image-rendering:optimizeQuality; fill-rule:evenodd; clip-rule:evenodd"
viewBox="0 0 1200 693"
 xmlns:xlink="http://www.w3.org/1999/xlink">
 <defs>
  <style type="text/css">
   <![CDATA[
    .fil0 {fill:#262626;fill-rule:nonzero}
   ]]>
  </style>
 </defs>
 <g id="Layer_x0020_1">
  <metadata id="CorelCorpID_0Corel-Layer"/>
  <path class="fil0" d="M653 0l520 301 0 -301 27 0 0 693 -27 0 0 -300 -520 300 -106 0 -520 -300 0 300 -27 0 0 -693 27 0 0 301 520 -301 106 0zm520 -337l0 -9 54 0 0 9 -27 0 -27 0zm-1200 0l0 -9 54 0 0 9 -54 0zm600 0l0 -9 54 0 0 9 -54 0zm574 684l-520 -301 0 601 520 -300zm-1094 0l520 300 0 -601 -520 301z"/>
 </g>
</svg>
