<?xml version="1.0" encoding="UTF-8"?>
<!DOCTYPE svg PUBLIC "-//W3C//DTD SVG 1.1//EN" "http://www.w3.org/Graphics/SVG/1.1/DTD/svg11.dtd">
<!-- Creator: CorelDRAW X8 -->
<svg xmlns="http://www.w3.org/2000/svg" xml:space="preserve" width="1.13999in" height="0.659992in" version="1.1" style="shape-rendering:geometricPrecision; text-rendering:geometricPrecision; image-rendering:optimizeQuality; fill-rule:evenodd; clip-rule:evenodd"
viewBox="0 0 1140 660"
 xmlns:xlink="http://www.w3.org/1999/xlink">
 <defs>
  <style type="text/css">
   <![CDATA[
    .fil0 {fill:#262626;fill-rule:nonzero}
   ]]>
  </style>
 </defs>
 <g id="Layer_x0020_1">
  <metadata id="CorelCorpID_0Corel-Layer"/>
  <path class="fil0" d="M1117 660l0 -127 -59 -34 -92 161 0 0 -792 0 1 0 -93 -161 -59 34 0 127 -23 0 0 -660 23 0 0 127 59 34 93 -161 791 0 92 161 59 -34 0 -127 23 0 0 660 -23 0zm-523 -202l58 33 93 -161 -93 -161 -58 34 0 255zm81 47l58 34 221 -128 0 -68 -186 0 -93 162zm82 74l0 68 186 0 92 -162 -58 -34 -220 128zm-27 68l0 -53 -90 53 90 0zm-23 -93l-45 -26 -46 78 91 -52zm-68 -40l-45 -26 0 105 45 -79zm118 -501l0 68 220 128 58 -34 -92 -162 -186 0zm-23 108l-59 34 93 162 186 0 0 -68 -220 -128zm-140 51l45 -26 -45 -79 0 105zm68 -40l45 -26 -91 -52 46 78zm68 -66l0 -53 -90 0 90 53zm387 331l-45 79 45 26 0 -105zm-68 65l45 -78 -91 52 46 26zm22 -119l-91 0 0 53 91 -53zm-91 -26l91 0 -91 -53 0 53zm114 -41l-45 -78 -46 26 91 52zm-22 -92l45 79 0 -105 -45 26zm-689 463l0 -68 -220 -128 -58 34 93 162 185 0zm24 -108l58 -34 -93 -162 -185 0 0 68 220 128zm81 -48l59 -34 0 -254 -59 -34 -93 161 93 161zm59 -3l-46 26 46 79 0 -105zm-69 40l-45 26 91 52 -46 -78zm-68 66l0 53 91 0 -91 -53zm55 -439l-58 -34 -220 128 0 68 185 0 93 -162zm-82 -74l0 -68 -185 0 -93 162 58 34 220 -128zm27 -68l0 53 91 -53 -91 0zm23 93l45 26 46 -78 -91 52zm68 40l46 26 0 -105 -46 79zm-455 238l46 78 45 -26 -91 -52zm23 92l-46 -79 0 105 46 -26zm0 -159l91 0 0 -53 -91 53zm91 26l-91 0 91 53 0 -53zm-137 -80l46 -79 -46 -26 0 105zm69 -65l-46 78 91 -52 -45 -26z"/>
 </g>
</svg>
