<?xml version="1.0" encoding="UTF-8"?>
<!DOCTYPE svg PUBLIC "-//W3C//DTD SVG 1.1//EN" "http://www.w3.org/Graphics/SVG/1.1/DTD/svg11.dtd">
<!-- Creator: CorelDRAW X8 -->
<svg xmlns="http://www.w3.org/2000/svg" xml:space="preserve" width="1.19999in" height="0.693331in" version="1.1" style="shape-rendering:geometricPrecision; text-rendering:geometricPrecision; image-rendering:optimizeQuality; fill-rule:evenodd; clip-rule:evenodd"
viewBox="0 0 1200 693"
 xmlns:xlink="http://www.w3.org/1999/xlink">
 <defs>
  <style type="text/css">
   <![CDATA[
    .fil0 {fill:#262626;fill-rule:nonzero}
   ]]>
  </style>
 </defs>
 <g id="Layer_x0020_1">
  <metadata id="CorelCorpID_0Corel-Layer"/>
  <path class="fil0" d="M1176 694l0 -134 -62 -35 -97 169 0 0 -834 0 1 0 -98 -169 -62 35 0 134 -24 0 0 -695 24 0 0 134 62 36 98 -170 833 0 97 170 62 -36 0 -134 24 0 0 695 -24 0zm-551 -213l61 35 98 -169 -98 -170 -61 36 0 268 0 0zm86 50l61 36 232 -135 0 -72 -196 0 -97 171 0 0zm86 78l0 71 196 0 96 -170 -61 -36 -231 135 0 0zm-29 71l0 -55 -94 55 94 0zm-24 -98l-47 -27 -49 82 96 -55zm-71 -42l-48 -27 0 111 48 -84zm124 -527l0 72 231 134 61 -35 -96 -171 -196 0 0 0zm-24 114l-62 35 97 171 196 0 0 -72 -231 -134 0 0zm-148 53l48 -27 -48 -83 0 110zm72 -42l47 -27 -96 -55 49 82zm71 -69l0 -56 -94 0 94 56zm408 348l-48 83 48 28 0 -111zm-72 69l48 -82 -96 54 48 28zm23 -126l-95 0 0 56 95 -56zm-95 -27l95 0 -95 -56 0 56zm120 -43l-48 -82 -48 27 96 55zm-24 -97l48 83 0 -110 -48 27zm-725 487l0 -71 -231 -135 -61 36 97 170 195 0 0 0zm25 -113l61 -36 -97 -171 -195 0 0 72 231 135 0 0zm86 -51l62 -36 0 -267 -62 -36 -98 170 98 169 0 0zm62 -3l-49 27 49 84 0 -111zm-73 42l-47 27 96 55 -49 -82zm-71 70l0 55 95 0 -95 -55zm57 -463l-61 -35 -231 134 0 72 195 0 97 -171 0 0zm-86 -77l0 -72 -195 0 -97 171 61 35 231 -134 0 0zm29 -72l0 56 95 -56 -95 0zm24 98l47 27 49 -82 -96 55zm71 42l49 27 0 -110 -49 83zm-479 251l49 82 47 -28 -96 -54zm25 96l-49 -83 0 111 49 -28zm0 -167l95 0 0 -56 -95 56zm95 27l-95 0 95 56 0 -56zm-144 -84l49 -83 -49 -27 0 110zm73 -68l-49 82 96 -55 -47 -27z"/>
 </g>
</svg>
