<?xml version="1.0" encoding="UTF-8"?>
<!DOCTYPE svg PUBLIC "-//W3C//DTD SVG 1.1//EN" "http://www.w3.org/Graphics/SVG/1.1/DTD/svg11.dtd">
<!-- Creator: CorelDRAW X8 -->
<svg xmlns="http://www.w3.org/2000/svg" xml:space="preserve" width="1.13999in" height="0.659992in" version="1.1" style="shape-rendering:geometricPrecision; text-rendering:geometricPrecision; image-rendering:optimizeQuality; fill-rule:evenodd; clip-rule:evenodd"
viewBox="0 0 1140 660"
 xmlns:xlink="http://www.w3.org/1999/xlink">
 <defs>
  <style type="text/css">
   <![CDATA[
    .fil0 {fill:#262626;fill-rule:nonzero}
   ]]>
  </style>
 </defs>
 <g id="Layer_x0020_1">
  <metadata id="CorelCorpID_0Corel-Layer"/>
  <path class="fil0" d="M593 40l0 86 74 -43 -74 -43zm0 178l0 224 65 38 87 -150 -87 -150 -65 38zm0 316l0 86 74 -43 -74 -43zm177 113l172 0 87 -150 -66 -38 -193 112 0 76zm282 -137l-87 150 0 0 -275 0 0 -43 -74 43 0 0 -92 0 0 0 -74 -43 0 43 -275 0 0 0 -87 -150 -65 38 0 112 -23 0 0 -660 23 0 0 112 65 38 87 -150 275 0 0 43 74 -43 92 0 74 43 0 -43 275 0 87 150 65 -38 0 -112 23 0 0 660 -23 0 0 -112 -65 -38zm-284 -167l-87 150 66 38 193 -112 0 -76 -172 0zm-87 -176l87 150 172 0 0 -76 -193 -112 -66 38zm261 -154l-172 0 0 76 193 112 66 -38 -87 -150zm78 360l74 -43 -74 -43 0 86zm97 -3l-74 43 74 43 0 -86zm0 -80l0 -86 -74 43 74 43zm-919 357l172 0 0 -76 -193 -112 -66 38 87 150zm261 -154l-87 -150 -172 0 0 76 193 112 66 -38zm-64 -163l87 150 65 -38 0 -224 -65 -38 -87 150zm-195 -13l172 0 87 -150 -66 -38 -193 112 0 76zm170 -304l-172 0 -87 150 66 38 193 -112 0 -76zm103 70l74 43 0 -86 -74 43zm74 451l-74 43 74 43 0 -86zm-524 -244l74 -43 -37 -21 -37 -22 0 86zm97 -3l-74 43 74 43 0 -86zm-23 126l-74 -43 0 86 74 -43z"/>
 </g>
</svg>
