<?xml version="1.0" encoding="UTF-8"?>
<!DOCTYPE svg PUBLIC "-//W3C//DTD SVG 1.1//EN" "http://www.w3.org/Graphics/SVG/1.1/DTD/svg11.dtd">
<!-- Creator: CorelDRAW X8 -->
<svg xmlns="http://www.w3.org/2000/svg" xml:space="preserve" width="360px" height="208px" version="1.1" style="shape-rendering:geometricPrecision; text-rendering:geometricPrecision; image-rendering:optimizeQuality; fill-rule:evenodd; clip-rule:evenodd"
viewBox="0 0 1200 693"
 xmlns:xlink="http://www.w3.org/1999/xlink">
 <defs>
  <style type="text/css">
   <![CDATA[
    .fil0 {fill:#262626;fill-rule:nonzero}
   ]]>
  </style>
 </defs>
 <g id="Layer_x0020_1">
  <metadata id="CorelCorpID_0Corel-Layer"/>
  <path class="fil0" d="M627 131l73 -42 -73 -43 0 85zm-600 -131l0 119 66 39 91 -158 290 0 0 43 73 -43 -1 0 108 0 -1 0 73 43 0 -43 290 0 91 158 66 -39 0 -119 27 0 0 693 -27 0 0 -119 -66 -38 -91 157 -290 0 0 -42 -73 42 -107 0 -72 -42 0 42 -290 0 -91 -157 -66 38 0 119 -27 0 0 -693 27 0zm0 216l0 85 73 -43 -37 -21 -36 -21zm157 -6l205 -119 0 -77 -181 0 -91 157 67 39zm627 -119l205 119 67 -39 -91 -157 -4 0 -177 0 0 77zm289 167l73 43 0 -85 -73 42zm73 220l0 -85 -73 42 73 43zm-157 6l-205 118 0 78 181 0 91 -158 -67 -38zm-627 119l-205 -119 -67 38 91 158 181 0 0 -77zm-289 -168l-73 -42 0 85 73 -43zm473 213l0 -86 -73 43 73 43zm0 -182l0 -238 -66 -39 -91 158 0 0 91 157 66 -38zm0 -335l0 -85 -73 43 73 42zm-157 6l-205 119 0 77 181 0 91 -158 -67 -38zm-290 167l-73 43 73 42 0 -85zm85 134l205 119 67 -39 -91 -158 -181 0 0 78zm936 -91l-73 -43 0 85 73 -42zm-158 -91l-205 -119 -67 38 91 158 181 0 0 -77zm-362 -28l0 238 66 38 91 -157 -91 -158 -66 39zm0 334l0 85 73 -42 -73 -43zm157 -6l205 -118 0 -78 -181 0 -91 158 67 38z"/>
 </g>
</svg>
