<?xml version="1.0" encoding="UTF-8"?>
<!DOCTYPE svg PUBLIC "-//W3C//DTD SVG 1.1//EN" "http://www.w3.org/Graphics/SVG/1.1/DTD/svg11.dtd">
<!-- Creator: CorelDRAW X8 -->
<svg xmlns="http://www.w3.org/2000/svg" xml:space="preserve" width="360px" height="208px" version="1.1" style="shape-rendering:geometricPrecision; text-rendering:geometricPrecision; image-rendering:optimizeQuality; fill-rule:evenodd; clip-rule:evenodd"
viewBox="0 0 1200 693"
 xmlns:xlink="http://www.w3.org/1999/xlink">
 <defs>
  <style type="text/css">
   <![CDATA[
    .fil0 {fill:#262626;fill-rule:nonzero}
   ]]>
  </style>
 </defs>
 <g id="Layer_x0020_1">
  <metadata id="CorelCorpID_0Corel-Layer"/>
  <path class="fil0" d="M1200 -1l-27 0 0 268c-54,-102 -80,-185 -80,-266l0 -2 -29 0 0 2c0,55 12,109 34,169 -42,-51 -83,-88 -131,-116 -47,-27 -100,-44 -163,-55l-204 0 0 0 -204 0c-64,12 -118,29 -167,57 -46,26 -87,63 -127,113 22,-61 34,-115 34,-170l-29 0c0,81 -26,162 -80,266l0 -266 -27 0 0 695 27 0 0 -267c54,102 80,184 80,265l0 2 29 0 0 -2c0,-55 -12,-108 -34,-168 42,50 83,87 131,115 47,28 100,45 163,55l204 0 0 0 204 0c64,-12 118,-28 167,-57 46,-26 87,-63 127,-112 -22,61 -34,114 -34,169l29 0c0,-81 26,-162 80,-265l0 265 27 0 0 -695zm-628 614c-54,-102 -80,-184 -80,-265 0,-81 26,-163 80,-268l0 533 0 0zm-74 -436c-23,61 -35,116 -35,171 0,54 12,109 34,168 -41,-50 -83,-87 -131,-115 -47,-27 -100,-45 -163,-55 64,-11 118,-29 166,-56 48,-28 88,-64 129,-113l0 0zm-415 185c116,6 199,23 270,64 69,40 127,104 190,203l-460 -267 0 0 0 0zm-28 -80c62,-97 119,-162 189,-202 70,-41 154,-59 272,-65l-461 267 0 0 0 0zm462 396c-116,-5 -200,-23 -270,-64 -70,-40 -127,-104 -191,-203l461 267 0 0 0 0zm27 -614c-62,97 -119,161 -188,202 -71,40 -155,58 -272,64l460 -266 0 0 0 0zm84 16c54,102 80,185 80,266 0,81 -26,163 -80,267l0 -533 0 0zm74 436c23,-61 35,-116 35,-170 0,-55 -12,-110 -34,-169 41,51 83,88 131,115 47,27 100,45 163,56 -64,10 -118,28 -166,56 -48,27 -88,64 -129,112l0 0zm415 -185c-116,-5 -199,-22 -270,-63 -69,-40 -127,-104 -190,-203l460 266 0 0 0 0zm28 80c-62,98 -119,162 -189,202 -70,41 -154,59 -272,65l461 -267 0 0 0 0zm-462 -396c116,5 200,23 270,64 70,40 127,105 191,203l-461 -267 0 0 0 0zm-27 615c62,-98 119,-161 188,-202 71,-40 155,-58 272,-64l-460 266 0 0 0 0z"/>
 </g>
</svg>
