<?xml version="1.0" encoding="UTF-8"?>
<!DOCTYPE svg PUBLIC "-//W3C//DTD SVG 1.1//EN" "http://www.w3.org/Graphics/SVG/1.1/DTD/svg11.dtd">
<!-- Creator: CorelDRAW X8 -->
<svg xmlns="http://www.w3.org/2000/svg" xml:space="preserve" width="1.13999in" height="0.659992in" version="1.1" style="shape-rendering:geometricPrecision; text-rendering:geometricPrecision; image-rendering:optimizeQuality; fill-rule:evenodd; clip-rule:evenodd"
viewBox="0 0 1140 660"
 xmlns:xlink="http://www.w3.org/1999/xlink">
 <defs>
  <style type="text/css">
   <![CDATA[
    .fil0 {fill:#262626;fill-rule:nonzero}
   ]]>
  </style>
 </defs>
 <g id="Layer_x0020_1">
  <metadata id="CorelCorpID_0Corel-Layer"/>
  <path class="fil0" d="M1140 0l-26 0 0 254c-51,-97 -76,-175 -76,-252l0 -2 -27 0 0 2c0,52 11,103 32,160 -40,-48 -79,-83 -124,-110 -45,-26 -95,-42 -155,-52l-194 0 0 0 -194 0c-61,11 -112,27 -158,54 -44,25 -83,60 -121,107 21,-58 32,-109 32,-161l-27 0c0,77 -25,154 -76,252l0 -252 -26 0 0 660 26 0 0 -254c51,97 76,175 76,252l0 2 27 0 0 -2c0,-52 -11,-103 -32,-160 40,48 79,83 124,110 45,26 95,42 155,52l194 0 0 0 194 0c61,-11 112,-27 158,-54 44,-25 83,-60 121,-107 -21,58 -32,109 -32,161l27 0c0,-77 25,-154 76,-252l0 252 26 0 0 -660zm-597 583c-51,-97 -76,-175 -76,-252 0,-77 25,-155 76,-254l0 506 0 0zm-70 -414c-22,58 -33,110 -33,162 0,52 11,104 32,160 -39,-48 -79,-83 -124,-109 -45,-26 -95,-43 -155,-53 61,-10 112,-27 158,-53 45,-26 83,-61 122,-107zm-394 176c110,5 189,21 256,60 66,38 121,99 181,193l-437 -253 0 0zm-27 -76c59,-93 113,-154 180,-192 66,-39 146,-56 258,-62l-438 254 0 0zm439 376c-110,-5 -190,-22 -256,-61 -67,-38 -121,-99 -182,-193l438 254 0 0zm26 -584c-59,93 -113,153 -179,192 -67,38 -147,55 -258,61l437 -253 0 0zm80 16c51,97 76,175 76,252 0,77 -25,155 -76,254l0 -506 0 0zm70 414c22,-58 33,-110 33,-162 0,-52 -11,-104 -32,-160 39,48 79,83 124,109 45,26 95,43 155,53 -61,10 -112,27 -158,53 -45,26 -83,61 -122,107zm394 -176c-110,-5 -189,-21 -256,-60 -66,-38 -121,-99 -181,-193l437 253 0 0zm27 76c-59,93 -113,154 -180,192 -66,39 -146,56 -258,62l438 -254 0 0zm-439 -376c110,5 190,22 256,61 67,38 121,99 182,193l-438 -254 0 0zm-26 584c59,-93 113,-153 179,-192 67,-38 147,-55 258,-61l-437 253 0 0z"/>
 </g>
</svg>
