<?xml version="1.0" encoding="UTF-8"?>
<!DOCTYPE svg PUBLIC "-//W3C//DTD SVG 1.1//EN" "http://www.w3.org/Graphics/SVG/1.1/DTD/svg11.dtd">
<!-- Creator: CorelDRAW X8 -->
<svg xmlns="http://www.w3.org/2000/svg" xml:space="preserve" width="2.27999in" height="1.31999in" version="1.1" style="shape-rendering:geometricPrecision; text-rendering:geometricPrecision; image-rendering:optimizeQuality; fill-rule:evenodd; clip-rule:evenodd"
viewBox="0 0 2280 1320"
 xmlns:xlink="http://www.w3.org/1999/xlink">
 <defs>
  <style type="text/css">
   <![CDATA[
    .fil0 {fill:#262626;fill-rule:nonzero}
   ]]>
  </style>
 </defs>
 <g id="Layer_x0020_1">
  <metadata id="CorelCorpID_0Corel-Layer"/>
  <path class="fil0" d="M1193 0l490 284 0 -284 54 0 0 251c75,-123 151,-213 334,-249l0 -2 100 0 0 32 56 -32 53 0 0 1320 -53 0 -56 -32 0 32 -100 0 0 -1c-183,-37 -259,-127 -334,-250l0 251 -54 0 0 -284c-163,95 -326,189 -490,284l-106 0c-164,-95 -327,-189 -490,-284l0 284 -54 0 0 -251c-75,123 -151,213 -334,249l0 2 -100 0 0 -32 -56 32 -53 0 0 -1320 53 0 0 0 56 32 0 -32 100 0 0 1c183,37 259,126 334,250l0 -251 54 0 0 284c163,-95 326,-189 490,-284l106 0 0 0zm544 376l0 568c163,-95 326,-189 490,-284 -164,-95 -327,-189 -490,-284zm-1194 568l0 -568c-163,95 -326,189 -490,284l490 284zm624 -510l47 27c29,-88 31,-158 17,-223 -12,-53 -35,-104 -64,-157l0 353zm77 44l2 1c123,-140 238,-162 383,-165l-217 -126 -217 -126c31,57 55,111 68,169 16,72 13,150 -19,247zm31 18l47 28 305 -177c-133,4 -240,25 -352,149zm74 74l0 54c164,-35 235,-117 304,-230l-304 176zm0 89l0 2c183,37 259,126 334,250l0 -502c-75,123 -151,213 -334,250zm0 37l0 54 304 176c-69,-113 -140,-195 -304,-230zm-27 100l-47 28c112,124 219,145 352,149l-305 -177zm-76 45l-2 1c32,97 35,175 19,247 -13,58 -37,112 -69,169l435 -252c-145,-3 -260,-25 -383,-165zm-32 18l-47 27 0 353c29,-53 52,-104 64,-157 14,-65 12,-135 -17,-223zm-101 27l-47 -27c-29,88 -31,158 -17,223 12,53 35,104 64,157l0 -353zm-77 -44l-2 -1c-123,140 -238,162 -383,165l434 252c-31,-57 -56,-111 -68,-169 -16,-72 -13,-150 19,-247zm-31 -18l-47 -28 -305 177c133,-4 240,-25 352,-149zm-74 -74l0 -54c-164,35 -235,117 -304,230l304 -176zm0 -89l0 -2c-183,-37 -259,-127 -334,-250l0 502c75,-123 151,-213 334,-250zm0 -37l0 -54 -304 -176c69,113 140,195 304,230zm27 -100l47 -28c-112,-124 -219,-145 -352,-149l305 177zm76 -45l2 -1c-32,-97 -35,-175 -19,-247 12,-58 37,-112 68,-169l-434 252c145,3 260,25 383,165zm32 -18l47 -27 0 -353c-29,53 -52,104 -64,157 -14,65 -12,135 17,223zm128 104l-27 -16 0 65 55 -33 -28 -16zm-81 -16l-55 32 55 33 0 -65zm-82 79l0 64 56 -32 -56 -32zm27 111l55 32 0 -65 -55 33zm109 32l55 -32 -55 -33 0 65zm82 -79l0 -64 -56 32 56 32zm1004 -466l-47 -27c-29,88 -31,158 -17,223 12,53 35,104 64,157l0 -353zm-77 -44l-2 -1c-123,140 -238,162 -383,165l435 252c-32,-57 -57,-111 -69,-169 -16,-72 -13,-150 19,-247zm-31 -18l-47 -28 -305 177c133,-4 240,-25 352,-149zm-74 -74l0 -54c-164,35 -235,117 -304,230l304 -176zm127 -11l55 32 0 -65 -55 33zm-2171 1015l47 27c29,-88 31,-158 17,-223 -12,-53 -35,-104 -64,-157l0 353zm77 44l2 1c123,-140 238,-162 383,-165l-217 -126 -218 -126c31,57 56,111 69,169 16,72 13,150 -19,247zm31 18l47 28 305 -177c-133,4 -240,25 -352,149zm74 74l0 54c164,-35 235,-117 304,-230l-304 176zm-155 -5l-27 -16 0 65 55 -33 -28 -16zm155 -1189l0 54 304 176c-69,-113 -140,-195 -304,-230zm-27 100l-47 28c112,124 219,145 352,149l-305 -177zm-76 45l-2 1c32,97 35,175 19,247 -13,58 -38,112 -69,169l435 -252c-145,-3 -260,-25 -383,-165zm-32 18l-47 27 0 353c29,-53 52,-104 64,-157 14,-65 12,-135 -17,-223zm-47 -88l55 -32 -55 -33 0 65zm2044 1173l0 -54 -304 -176c69,113 140,195 304,230zm27 -100l47 -28c-112,-124 -219,-145 -352,-149l305 177zm76 -45l2 -1c-32,-97 -35,-175 -19,-247 12,-58 37,-112 69,-169l-435 252c145,3 260,25 383,165zm32 -18l47 -27 0 -353c-29,53 -52,104 -64,157 -14,65 -12,135 17,223zm47 88l-55 32 55 33 0 -65z"/>
 </g>
</svg>
