<?xml version="1.0" encoding="UTF-8"?>
<!DOCTYPE svg PUBLIC "-//W3C//DTD SVG 1.1//EN" "http://www.w3.org/Graphics/SVG/1.1/DTD/svg11.dtd">
<!-- Creator: CorelDRAW X8 -->
<svg xmlns="http://www.w3.org/2000/svg" xml:space="preserve" width="2.39999in" height="1.38666in" version="1.1" style="shape-rendering:geometricPrecision; text-rendering:geometricPrecision; image-rendering:optimizeQuality; fill-rule:evenodd; clip-rule:evenodd"
viewBox="0 0 2400 1387"
 xmlns:xlink="http://www.w3.org/1999/xlink">
 <defs>
  <style type="text/css">
   <![CDATA[
    .fil0 {fill:#262626;fill-rule:nonzero}
   ]]>
  </style>
 </defs>
 <g id="Layer_x0020_1">
  <metadata id="CorelCorpID_0Corel-Layer"/>
  <path class="fil0" d="M1856 0l516 298 0 -300 45 0 0 1395 -45 0 0 -305c-172,100 -344,199 -516,299l-112 0c-172,-100 -344,-199 -516,-299l0 304 -56 0 0 -269c-79,129 -159,224 -352,262l0 7 -105 0 0 -39 -59 34c-37,0 -75,0 -112,0l-59 -34 0 36 -105 0 0 -3c-193,-39 -273,-134 -352,-263l0 268 -36 2 0 -1397 36 -2 0 270c79,-130 159,-224 352,-262l0 -2 105 0 0 34 59 -34c37,0 75,0 112,0l0 0 59 34 0 -34 105 0 0 1c193,39 273,132 352,263l0 -267 56 0 0 301c172,-99 344,-198 516,-298l112 0 0 0zm-1828 395l0 597c172,-100 344,-199 516,-299 -172,-99 -344,-198 -516,-298l0 0zm544 -158l-50 -28c-30,92 -33,166 -18,234 13,56 37,110 68,165l0 -371 0 0zm-81 -46l-3 -1c-129,147 -250,170 -403,173l458 265c-34,-60 -60,-116 -72,-177 -17,-76 -14,-158 20,-260zm-33 -19l-50 -29 -321 186c140,-4 253,-26 371,-157zm-78 -77l0 -57c-173,37 -247,123 -320,241l320 -184zm134 -12l58 34 0 -69 -58 35zm-134 1266l0 -57 -320 -185c73,119 147,205 320,242zm28 -105l50 -30c-118,-130 -231,-152 -371,-156l321 186zm80 -47l3 -2c-34,-101 -37,-183 -20,-259 12,-61 38,-118 72,-178l-458 265c153,3 274,26 403,174zm34 -19l50 -29 0 -371c-31,56 -55,110 -68,165 -15,69 -12,142 18,235l0 0zm50 92l-58 34 58 34 0 -68zm600 -278l0 -597c-172,100 -344,199 -516,298l516 299 0 0zm656 -536l50 28c30,-92 33,-166 18,-234 -13,-56 -37,-109 -68,-165l0 371 0 0zm81 46l3 1c129,-147 250,-170 403,-173l-229 -133 -228 -132c33,60 58,117 71,178 17,75 14,157 -20,259l0 0zm33 19l50 29 321 -185c-140,4 -253,26 -371,156zm78 78l0 57c173,-37 247,-123 320,-242l-320 185zm0 93l0 2c193,39 273,133 352,263l0 -527c-79,129 -159,223 -352,262l0 0zm0 39l0 57 320 185c-73,-119 -147,-205 -320,-242zm-28 105l-50 30c118,130 231,152 371,156l-321 -186zm-80 47l-3 2c34,101 37,183 20,259 -13,61 -38,118 -72,178l458 -265c-153,-3 -274,-26 -403,-174zm-34 19l-50 29 0 371c31,-56 55,-110 68,-165 15,-69 12,-142 -18,-235l0 0zm-106 29l-50 -29c-30,93 -33,166 -18,235 13,55 37,109 68,165l0 -371 0 0zm-81 -46l-3 -2c-129,148 -250,171 -403,174l457 265c-33,-60 -59,-117 -71,-178 -17,-76 -14,-158 20,-259zm-33 -19l-50 -30 -321 186c140,-4 253,-26 371,-156zm-78 -78l0 -57c-173,37 -247,123 -320,242l320 -185zm0 -94l0 -2c-193,-39 -273,-133 -352,-262l0 527c79,-129 159,-224 352,-263l0 0zm0 -38l0 -57 -320 -185c73,119 147,205 320,242zm28 -106l50 -29c-118,-130 -231,-152 -371,-156l321 185zm80 -47l3 -1c-34,-102 -37,-184 -20,-259 12,-61 38,-118 71,-178l-457 265c153,3 274,26 403,173zm34 -19l50 -28 0 -371c-31,56 -55,109 -68,165 -15,68 -12,142 18,234l0 0zm135 110l-29 -17 0 68 58 -35 -29 -16zm-85 -17l-58 33 58 35 0 -68zm-87 83l0 67 59 -34 -59 -33zm29 116l58 34 0 -68 -58 34zm114 34l58 -34 -58 -34 0 68zm87 -83l0 -67 -59 33 59 34zm-1287 422l50 29c30,-93 33,-166 18,-235 -13,-55 -37,-109 -68,-165l0 371 0 0zm81 46l3 2c129,-148 250,-171 403,-174l-229 -132 -229 -133c32,60 59,117 72,178 17,76 14,158 -20,259l0 0zm33 19l50 30 321 -186c-140,4 -253,26 -371,156zm78 78l0 57c173,-37 247,-123 320,-242l-320 185zm-163 -5l-29 -17 0 68 58 -34 -29 -17zm163 -1249l0 57 320 184c-73,-118 -147,-204 -320,-241zm-28 105l-50 29c118,131 231,153 371,157l-321 -186zm-80 47l-3 1c34,102 37,184 20,260 -13,61 -40,117 -72,177l458 -265c-153,-3 -274,-26 -403,-173zm-34 19l-50 28 0 371c31,-55 55,-109 68,-165 15,-68 12,-142 -18,-234l0 0zm-50 -92l58 -34 -58 -35 0 69z"/>
 </g>
</svg>
