<?xml version="1.0" encoding="UTF-8"?>
<!DOCTYPE svg PUBLIC "-//W3C//DTD SVG 1.1//EN" "http://www.w3.org/Graphics/SVG/1.1/DTD/svg11.dtd">
<!-- Creator: CorelDRAW X8 -->
<svg xmlns="http://www.w3.org/2000/svg" xml:space="preserve" width="2.39999in" height="1.38666in" version="1.1" style="shape-rendering:geometricPrecision; text-rendering:geometricPrecision; image-rendering:optimizeQuality; fill-rule:evenodd; clip-rule:evenodd"
viewBox="0 0 2400 1387"
 xmlns:xlink="http://www.w3.org/1999/xlink">
 <defs>
  <style type="text/css">
   <![CDATA[
    .fil0 {fill:#262626;fill-rule:nonzero}
   ]]>
  </style>
 </defs>
 <g id="Layer_x0020_1">
  <metadata id="CorelCorpID_0Corel-Layer"/>
  <g id="_800376776">
   <path class="fil0" d="M2373 1l0 -27 54 0 0 1050 0 0 0 389 -54 0 0 -358 -573 -331 -573 331 0 358 -54 0 0 -327 -573 331 -573 -331 0 327 -54 0 0 -1439 54 0 0 327 573 -331 573 331 0 -327 54 0 0 358 573 331 573 -331 0 -331zm0 392l-520 300 520 301 0 -601zm-1773 962l573 -331 0 -662 -573 -331 -573 331 0 663 573 330zm627 -361l520 -301 -520 -300 0 601z"/>
   <path class="fil0" d="M1408 680l784 0 196 -340 23 14 -196 339 196 340 -23 13 -196 -339 -784 0 -400 692 -816 0 -204 -353 -1 -6 0 -693 1 -7 204 -353 816 0 400 693zm-1395 356l195 337 784 0 393 -680 -393 -679 -784 0 -195 336 0 686z"/>
  </g>
 </g>
</svg>
