<?xml version="1.0" encoding="UTF-8"?>
<!DOCTYPE svg PUBLIC "-//W3C//DTD SVG 1.1//EN" "http://www.w3.org/Graphics/SVG/1.1/DTD/svg11.dtd">
<!-- Creator: CorelDRAW X8 -->
<svg xmlns="http://www.w3.org/2000/svg" xml:space="preserve" width="1.13999in" height="0.659992in" version="1.1" style="shape-rendering:geometricPrecision; text-rendering:geometricPrecision; image-rendering:optimizeQuality; fill-rule:evenodd; clip-rule:evenodd"
viewBox="0 0 1140 660"
 xmlns:xlink="http://www.w3.org/1999/xlink">
 <defs>
  <style type="text/css">
   <![CDATA[
    .fil0 {fill:#262626;fill-rule:nonzero}
   ]]>
  </style>
 </defs>
 <g id="Layer_x0020_1">
  <metadata id="CorelCorpID_0Corel-Layer"/>
  <path class="fil0" d="M674 319l69 0 -140 -240 71 240zm-84 -211l0 444 64 -222 -64 -222 0 0zm-39 444l0 -444 -65 222 65 222 0 0zm399 85l139 -238 -174 180 35 58 0 0zm157 -228l-140 239 69 0 71 -239zm13 27l-64 222 -972 0 0 0 -65 -222 0 222 -19 0 0 -657 19 0 0 222 65 -222 972 0 0 0 64 222 0 -222 20 0 0 657 -20 0 0 -222zm-223 152l-241 60 277 0 -36 -60zm-225 34l225 -55 161 -167 -386 222zm296 -610l139 238 -70 -238 -69 0zm121 249l-140 -240 -34 60 174 180 0 0zm-31 -2l-161 -166 -225 -56 386 222zm-402 -247l241 58 35 -58 -276 0zm-3 576l385 -222 -225 55 -160 167zm385 -294l-385 -222 160 166 225 56zm-260 25l276 0 -241 -60 -35 60zm277 21l-276 0 34 60 242 -60zm-313 0l-69 0 -70 240 139 -240zm-119 251l172 -180 -35 -60 -138 240 1 0zm172 -342l-174 -180 140 240 34 -60 0 0zm-604 -227l-140 239 174 -180 -35 -59 1 0zm-158 228l140 -240 -69 0 -71 240zm210 -178l241 -62 -277 0 36 62zm225 -35l-225 56 -161 166 386 -222zm-295 611l-140 -239 70 239 70 0zm-122 -249l140 240 34 -60 -174 -180 0 0zm31 1l161 167 225 55 -386 -222zm402 248l-241 -59 -34 59 275 0zm-18 -308l-69 0 140 240 -71 -240zm-104 0l-276 0 241 60 35 -60zm-277 -21l276 0 -34 -60 -242 60zm313 0l69 0 70 -240 -139 240zm-296 -25l225 -56 160 -166 -385 222zm416 -225l-173 180 35 60 138 -240 0 0zm-173 342l174 180 -140 -240 -34 60 0 0zm142 177l-160 -167 -225 -55 385 222z"/>
 </g>
</svg>
