<?xml version="1.0" encoding="UTF-8"?>
<!DOCTYPE svg PUBLIC "-//W3C//DTD SVG 1.1//EN" "http://www.w3.org/Graphics/SVG/1.1/DTD/svg11.dtd">
<!-- Creator: CorelDRAW X8 -->
<svg xmlns="http://www.w3.org/2000/svg" xml:space="preserve" width="4.11999in" height="2.37999in" version="1.1" style="shape-rendering:geometricPrecision; text-rendering:geometricPrecision; image-rendering:optimizeQuality; fill-rule:evenodd; clip-rule:evenodd"
viewBox="0 0 4120 2380"
 xmlns:xlink="http://www.w3.org/1999/xlink">
 <defs>
  <style type="text/css">
   <![CDATA[
    .fil0 {fill:#262626;fill-rule:nonzero}
   ]]>
  </style>
 </defs>
 <g id="Layer_x0020_1">
  <metadata id="CorelCorpID_0Corel-Layer"/>
  <path class="fil0" d="M3468 1130l428 0 -642 -371 214 371zm-1348 -164l214 -371 -214 -370 0 741zm318 -431l428 0 -642 -371 214 371zm428 1310l-428 0 -214 370 642 -370zm-532 -61l-214 -370 0 741 214 -371zm-334 -370l-214 371 214 371 0 -742zm-318 431l-428 0 642 371 -214 -371zm-428 -1310l428 0 214 -371 -642 371zm532 60l214 371 0 -742 -214 371zm652 60l-309 535 309 535 617 0 309 -535 -309 -535 -617 0zm-447 535l-309 -535 -617 0 -309 535 309 535 617 0 309 -535zm825 -1189l309 534 617 0 309 -534 69 0 0 2378 -69 0 -309 -534 -617 0c-103,178 -206,356 -309,534l-1512 0 -309 -534 -617 0 -309 534 -69 0 0 -2378 69 0 309 534 617 0 0 0c103,-178 206,-356 309,-534l1512 0zm-2164 1249l-428 0 642 371 -214 -371zm-428 -120l428 0 214 -371 -642 371zm154 -475l-214 371 642 -371 -428 0zm-214 699l214 371 428 0 -642 -371zm110 430l-214 -371 0 742 214 -371zm-214 -818l214 -371 -214 -371 0 742zm3896 60l-214 -371 -428 0 642 371zm-1673 -965l643 371 -214 -371 -429 0zm1673 1293l-642 371 428 0 214 -371zm-1030 595l-642 370 428 0 214 -370zm-1090 370c-214,-123 -428,-247 -642,-371l214 371 428 0zm-642 -1888l642 -370 -428 0 -214 370zm2060 1190l642 -371 -428 0c-72,124 -143,247 -214,371zm592 -1026l214 372 0 -743 -214 371zm214 819l-214 371 214 371 0 -742z"/>
 </g>
</svg>
