<?xml version="1.0" encoding="UTF-8"?>
<!DOCTYPE svg PUBLIC "-//W3C//DTD SVG 1.1//EN" "http://www.w3.org/Graphics/SVG/1.1/DTD/svg11.dtd">
<!-- Creator: CorelDRAW X8 -->
<svg xmlns="http://www.w3.org/2000/svg" xml:space="preserve" width="2.36666in" height="1.36666in" version="1.1" style="shape-rendering:geometricPrecision; text-rendering:geometricPrecision; image-rendering:optimizeQuality; fill-rule:evenodd; clip-rule:evenodd"
viewBox="0 0 2367 1367"
 xmlns:xlink="http://www.w3.org/1999/xlink">
 <defs>
  <style type="text/css">
   <![CDATA[
    .fil0 {fill:#262626;fill-rule:nonzero}
   ]]>
  </style>
 </defs>
 <g id="Layer_x0020_1">
  <metadata id="CorelCorpID_0Corel-Layer"/>
  <path class="fil0" d="M1308 33l376 218 -125 -218 -251 0zm935 684l-252 0 -125 217 377 -217zm-252 -67l252 0 -377 -217 125 217zm-1867 0l251 0 126 -218 -377 218zm251 67l-251 0 377 217 -126 -217zm899 -626l126 217 250 0 -376 -217zm126 967c-42,73 -84,145 -126,218l377 -218 -251 0zm-649 309c-60,-103 -119,-206 -178,-309l-357 0 -178 309 -38 0 0 -1367 38 0 178 308 357 0 177 -308 866 0 178 308 356 0 178 -308 39 0 0 1367 -39 0 -178 -309 -356 0c-59,103 -119,206 -178,309l-865 0zm342 -91c-42,-73 -84,-145 -126,-218l-251 0 377 218zm-126 -968l125 -217 -376 217 251 0zm375 34l-125 -218 0 435 125 -217zm-192 -218l-126 218 126 217 0 -435zm-126 901l126 218 0 -436 -126 218zm193 218l125 -218 -72 -126 -53 -92 0 436zm467 -127l-377 217 252 0 125 -217zm-625 217l-376 -217 125 217 251 0zm-377 -1082l377 -218 -251 0 -126 218zm-71 124l-178 308 178 309 356 0 178 -309 -178 -308 -356 0zm1145 617l178 -309 -178 -308 -356 0 -178 308 178 309 356 0zm520 -399l-126 -218 -251 0 377 218zm57 649l0 -434 -125 217 125 217zm0 -683l0 -435 -125 218 125 217zm-2300 0l126 -217 -126 -218 0 435zm183 -184l-125 218 377 -218 -252 0zm-125 399l125 218 251 0 -376 -218zm68 251l-126 -218 0 436 126 -218zm2117 -251l-377 218 251 0 126 -218z"/>
 </g>
</svg>
