<?xml version="1.0" encoding="UTF-8"?>
<!DOCTYPE svg PUBLIC "-//W3C//DTD SVG 1.1//EN" "http://www.w3.org/Graphics/SVG/1.1/DTD/svg11.dtd">
<!-- Creator: CorelDRAW X8 -->
<svg xmlns="http://www.w3.org/2000/svg" xml:space="preserve" width="2.27333in" height="1.31333in" version="1.1" style="shape-rendering:geometricPrecision; text-rendering:geometricPrecision; image-rendering:optimizeQuality; fill-rule:evenodd; clip-rule:evenodd"
viewBox="0 0 2273 1313"
 xmlns:xlink="http://www.w3.org/1999/xlink">
 <defs>
  <style type="text/css">
   <![CDATA[
    .fil0 {fill:#262626;fill-rule:nonzero}
   ]]>
  </style>
 </defs>
 <g id="Layer_x0020_1">
  <metadata id="CorelCorpID_0Corel-Layer"/>
  <path class="fil0" d="M469 1313l50 -29 0 -599 -519 -299 0 -115 469 -271 149 0 0 628 519 299 518 -299 0 -628 149 0 469 271 0 115 -518 299 0 599 49 29 -198 0 -469 -271 -469 271 -199 0zm178 -554l120 209 242 0 -362 -209zm120 242l-120 209 362 -209 -242 0zm-149 193l121 -209 -121 -209 0 418zm1009 16l-121 -209 -241 0 362 209zm-121 -242l121 -209 -362 209 241 0zm149 -192l-120 209 120 209 0 -418zm128 -673l121 209 241 0 -362 -209zm121 242l-121 209 362 -209 -241 0zm-149 193l120 -209 -120 -209 0 418zm-1265 16l-121 -209 -241 0 362 209zm-121 -242l121 -209 -362 209 241 0zm150 -192l-121 209 121 209 0 -418z"/>
 </g>
</svg>
