<?xml version="1.0" encoding="UTF-8"?>
<!DOCTYPE svg PUBLIC "-//W3C//DTD SVG 1.1//EN" "http://www.w3.org/Graphics/SVG/1.1/DTD/svg11.dtd">
<!-- Creator: CorelDRAW X8 -->
<svg xmlns="http://www.w3.org/2000/svg" xml:space="preserve" width="1.19999in" height="0.693331in" version="1.1" style="shape-rendering:geometricPrecision; text-rendering:geometricPrecision; image-rendering:optimizeQuality; fill-rule:evenodd; clip-rule:evenodd"
viewBox="0 0 1200 693"
 xmlns:xlink="http://www.w3.org/1999/xlink">
 <defs>
  <style type="text/css">
   <![CDATA[
    .fil0 {fill:#262626;fill-rule:nonzero}
   ]]>
  </style>
 </defs>
 <g id="Layer_x0020_1">
  <metadata id="CorelCorpID_0Corel-Layer"/>
  <path class="fil0" d="M27 0l0 209 56 -209 1034 0 56 209 0 -209 0 0 27 0 0 693 -27 0 0 -208 -56 208 -1034 0 -56 -208 0 208 -27 0 0 -693 27 0zm173 673l41 -71 -194 -195 153 266zm58 -61l-41 71 307 0 -266 -71zm725 71l-41 -71 -266 71 307 0zm-24 -81l41 71 153 -266 -194 195zm41 -582l-41 71 194 195 -153 -266zm-58 61l41 -71 -307 0 266 71zm-725 -71l41 71 266 -71 -307 0zm24 81l-41 -71 -153 266 194 -195zm-212 185c51,-89 103,-177 154,-266l-83 0 -71 266zm988 -266c51,89 103,177 154,266l-71 -266 -83 0zm154 407c-51,89 -103,178 -154,266l83 0 71 -266zm-988 266l-154 -266 71 266 83 0zm-77 -428l361 -209 -208 56 -153 153zm627 -209l361 209 -153 -153 -208 -56zm361 393l-362 208 209 -56 153 -152zm-627 208c-120,-69 -240,-139 -361,-208l153 152 208 56zm-108 -391l41 71 153 -266 -194 195zm58 101l154 266 -71 -266 -83 0zm212 266l154 -266 -83 0 -71 266zm171 -296l41 -71 -194 -195 153 266zm58 -62l-41 72 307 0 -266 -72zm-58 102l-154 265 195 -194 -41 -71zm-247 265l-153 -265 -41 71 194 194zm-170 -295l-41 -72 -266 72 307 0zm188 -266l-154 266 83 0 71 -266zm-229 357l41 -71 -307 0 266 71zm475 -71l41 71 266 -71 -307 0zm-34 -20l-154 -266 71 266 83 0zm-77 -245l153 153 208 56 -361 -209zm362 301l-209 55 -153 153 362 -208zm-441 162l55 -208 -55 -209 0 417zm-495 -254l209 -56 153 -153 -362 209zm441 -163l-55 209 55 208 0 -417zm-79 463l-153 -153 -208 -55 361 208z"/>
 </g>
</svg>
