<?xml version="1.0" encoding="UTF-8"?>
<!DOCTYPE svg PUBLIC "-//W3C//DTD SVG 1.1//EN" "http://www.w3.org/Graphics/SVG/1.1/DTD/svg11.dtd">
<!-- Creator: CorelDRAW X8 -->
<svg xmlns="http://www.w3.org/2000/svg" xml:space="preserve" width="720px" height="416px" version="1.1" style="shape-rendering:geometricPrecision; text-rendering:geometricPrecision; image-rendering:optimizeQuality; fill-rule:evenodd; clip-rule:evenodd"
viewBox="0 0 2400 1387"
 xmlns:xlink="http://www.w3.org/1999/xlink">
 <defs>
  <style type="text/css">
   <![CDATA[
    .fil0 {fill:#262626;fill-rule:nonzero}
   ]]>
  </style>
 </defs>
 <g id="Layer_x0020_1">
  <metadata id="CorelCorpID_0Corel-Layer"/>
  <path id="base" class="fil0" d="M2373 1l0 -1 27 0 0 347 0 26 0 640 0 27 0 347 -27 0 0 -332 -573 -331 -573 331 0 332 -54 0 0 -275 -158 275 -363 0 -104 0 -363 0 -158 -274 0 274 -27 0 0 -321 0 -746 0 -320 27 0 0 274 158 -274 363 0 104 0 363 0 158 274 0 -274 54 0 0 332 573 331 573 -331 0 -331zm-1223 1098l-474 274 316 0 158 -274zm-626 274l-474 -274 158 274 316 0zm-474 -1085l474 -274 -316 0 -158 274zm626 -274l474 274 -158 -274 -316 0zm732 666l316 0 -474 -274 158 274zm468 0l316 0 158 -274 -474 274zm497 -260l-158 273 158 274 0 -547zm-23 560l-158 -273 -316 0 474 273zm-626 -273l-316 0 -158 273 474 -273zm-497 260l158 -274 -158 -273 0 547zm-627 388l573 -331 0 -662 -573 -331 -573 331 0 663 573 330z"/>
 </g>
</svg>
