<?xml version="1.0" encoding="UTF-8"?>
<!DOCTYPE svg PUBLIC "-//W3C//DTD SVG 1.1//EN" "http://www.w3.org/Graphics/SVG/1.1/DTD/svg11.dtd">
<!-- Creator: CorelDRAW X8 -->
<svg xmlns="http://www.w3.org/2000/svg" xml:space="preserve" width="2.28666in" height="1.31999in" version="1.1" style="shape-rendering:geometricPrecision; text-rendering:geometricPrecision; image-rendering:optimizeQuality; fill-rule:evenodd; clip-rule:evenodd"
viewBox="0 0 2287 1320"
 xmlns:xlink="http://www.w3.org/1999/xlink">
 <defs>
  <style type="text/css">
   <![CDATA[
    .fil0 {fill:#262626;fill-rule:nonzero}
   ]]>
  </style>
 </defs>
 <g id="Layer_x0020_1">
  <metadata id="CorelCorpID_0Corel-Layer"/>
  <path class="fil0" d="M1113 1208l0 -436 -126 218 126 218zm-4 -548l0 0 0 0 -174 -300 -346 0 0 0 0 0 -173 300 173 300 0 0 346 0 174 -300zm4 -112l0 -436 -126 218 126 218zm60 -436l0 436 126 -218 -126 -218zm5 548l0 0 0 0 173 300 347 0 0 0 0 0 173 -300 -173 -300 0 0 -347 0 -173 300zm-5 112l0 436 126 -218 -126 -218zm-1138 548l0 0 -35 0 0 -1320 35 0 0 0 173 300 346 0 174 -300 831 0 173 300 347 0 173 -300 0 0 35 0 0 1320 -35 0 0 0 -173 -300 -347 0 -173 300 -831 0 -174 -300 -346 0 -173 300zm-5 -112l126 -218 -126 -218 0 436zm52 -466l126 218 252 0 -378 -218zm572 330l126 218 251 0 -377 -218zm-498 -742l-126 -218 0 436 126 -218zm875 -300l-252 0 -125 218 377 -218zm-571 330l-252 0 -126 218 378 -218zm475 660l-251 0 377 218 -126 -218zm-445 -112l-126 -218 -252 0 378 218zm-126 -278l126 -218 -378 218 252 0zm320 -330l251 0 126 -218 -377 218zm1447 690l126 218 0 -436 -126 218zm-876 300l252 0 126 -218 -378 218zm572 -330l252 0 126 -218 -378 218zm430 -848l-126 218 126 218 0 -436zm-52 466l-126 -218 -252 0 378 218zm-572 -330l-126 -218 -252 0 378 218zm-282 52l252 0 -378 -218 126 218zm446 112l126 218 252 0 -378 -218zm126 278l-126 218 378 -218 -252 0zm-320 330l-252 0 -126 218 378 -218z"/>
 </g>
</svg>
